<mxfile host="Electron" agent="Mozilla/5.0 (X11; Linux x86_64) AppleWebKit/537.36 (KHTML, like Gecko) draw.io/26.0.16 Chrome/132.0.6834.196 Electron/34.2.0 Safari/537.36" version="26.0.16">
  <diagram name="Page-1" id="JboqZMmhIvIfK8YCNcOB">
    <mxGraphModel dx="564" dy="329" grid="1" gridSize="10" guides="1" tooltips="1" connect="1" arrows="1" fold="1" page="1" pageScale="1" pageWidth="850" pageHeight="1100" math="0" shadow="0">
      <root>
        <mxCell id="0" />
        <mxCell id="1" parent="0" />
        <mxCell id="AHNvOGjP9P18lFbbEgM--1" value="" style="shape=image;verticalLabelPosition=bottom;verticalAlign=top;imageAspect=0;aspect=fixed;image=data:image/svg+xml,PHN2ZyB4bWxucz0iaHR0cDovL3d3dy53My5vcmcvMjAwMC9zdmciIHZpZXdCb3g9IjAgMCA0OCA0OCI+PGcgZmlsbD0iY3VycmVudENvbG9yIiB0cmFuc2Zvcm09InRyYW5zbGF0ZSgtMS4zODYgLTEuMjIpIHNjYWxlKDIuMjE3MSkiPjxjaXJjbGUgY3g9IjMuNCIgY3k9IjMuMjUiIHI9IjIuNyIgY2xhc3M9InRhaWxzY2FsZV9zdmdfX2RvdCB0YWlsc2NhbGVfc3ZnX19kb3QtYTEiIG9wYWNpdHk9Ii4yIi8+PGNpcmNsZSBjeD0iMy40IiBjeT0iMTEuMyIgcj0iMi43IiBjbGFzcz0idGFpbHNjYWxlX3N2Z19fZG90IHRhaWxzY2FsZV9zdmdfX2RvdC1hMiIvPjxjaXJjbGUgY3g9IjMuNCIgY3k9IjE5LjUiIHI9IjIuNyIgY2xhc3M9InRhaWxzY2FsZV9zdmdfX2RvdCB0YWlsc2NhbGVfc3ZnX19kb3QtYTMiIG9wYWNpdHk9Ii4yIi8+PGNpcmNsZSBjeD0iMTEuNSIgY3k9IjExLjMiIHI9IjIuNyIgY2xhc3M9InRhaWxzY2FsZV9zdmdfX2RvdCB0YWlsc2NhbGVfc3ZnX19kb3QtYjEiLz48Y2lyY2xlIGN4PSIxMS41IiBjeT0iMTkuNSIgcj0iMi43IiBjbGFzcz0idGFpbHNjYWxlX3N2Z19fZG90IHRhaWxzY2FsZV9zdmdfX2RvdC1iMiIvPjxjaXJjbGUgY3g9IjExLjUiIGN5PSIzLjI1IiByPSIyLjciIGNsYXNzPSJ0YWlsc2NhbGVfc3ZnX19kb3QgdGFpbHNjYWxlX3N2Z19fZG90LWIzIiBvcGFjaXR5PSIuMiIvPjxjaXJjbGUgY3g9IjE5LjUiIGN5PSIzLjI1IiByPSIyLjciIGNsYXNzPSJ0YWlsc2NhbGVfc3ZnX19kb3QgdGFpbHNjYWxlX3N2Z19fZG90LWMxIiBvcGFjaXR5PSIuMiIvPjxjaXJjbGUgY3g9IjE5LjUiIGN5PSIxMS4zIiByPSIyLjciIGNsYXNzPSJ0YWlsc2NhbGVfc3ZnX19kb3QgdGFpbHNjYWxlX3N2Z19fZG90LWMyIi8+PGNpcmNsZSBjeD0iMTkuNSIgY3k9IjE5LjUiIHI9IjIuNyIgY2xhc3M9InRhaWxzY2FsZV9zdmdfX2RvdCB0YWlsc2NhbGVfc3ZnX19kb3QtYzMiIG9wYWNpdHk9Ii4yIi8+PC9nPjwvc3ZnPg==" parent="1" vertex="1">
          <mxGeometry x="480" y="390" width="48" height="48" as="geometry" />
        </mxCell>
        <mxCell id="vkedUsvM2t2fuHIzKLKo-1" style="edgeStyle=orthogonalEdgeStyle;rounded=0;orthogonalLoop=1;jettySize=auto;html=1;exitX=1;exitY=0.5;exitDx=0;exitDy=0;entryX=0;entryY=0.5;entryDx=0;entryDy=0;startArrow=classic;startFill=1;" parent="1" source="AHNvOGjP9P18lFbbEgM--3" target="AHNvOGjP9P18lFbbEgM--1" edge="1">
          <mxGeometry relative="1" as="geometry" />
        </mxCell>
        <mxCell id="AHNvOGjP9P18lFbbEgM--3" value="" style="shape=image;verticalLabelPosition=bottom;verticalAlign=top;imageAspect=0;aspect=fixed;image=data:image/svg+xml,PHN2ZyB4bWxucz0iaHR0cDovL3d3dy53My5vcmcvMjAwMC9zdmciIHZpZXdCb3g9IjAgMCA0OCA0OCI+PHBhdGggZD0iTTQyLjI5MiAxNi4zNjVjLS4yNzguMjE2LTUuMTk0IDIuOTg2LTUuMTk0IDkuMTQ1IDAgNy4xMjQgNi4yNTUgOS42NDQgNi40NDIgOS43MDYtLjAyOC4xNTQtLjk5MyAzLjQ1Mi0zLjI5OCA2LjgxMi0yLjA1NCAyLjk1Ny00LjIgNS45MS03LjQ2NCA1LjkxLTMuMjY1IDAtNC4xMDUtMS44OTctNy44NzMtMS44OTctMy42NzIgMC00Ljk3OCAxLjk1OS03Ljk2NCAxLjk1OS0yLjk4NiAwLTUuMDctMi43MzYtNy40NjUtNi4wOTdDNi43MDEgMzcuOTU3IDQuNDYgMzEuODI3IDQuNDYgMjYuMDFjMC05LjMzMiA2LjA2Ny0xNC4yODEgMTIuMDQtMTQuMjgxIDMuMTcyIDAgNS44MTcgMi4wODMgNy44MSAyLjA4MyAxLjg5NiAwIDQuODUzLTIuMjA4IDguNDYzLTIuMjA4IDEuMzY4IDAgNi4yODQuMTI1IDkuNTIgNC43NjJ6TTMxLjA2IDcuNjUyYzEuNDkzLTEuNzcxIDIuNTUtNC4yMyAyLjU1LTYuNjg3IDAtLjM0LS4wMy0uNjg3LS4wOTItLjk2NS0yLjQzLjA5MS01LjMxOSAxLjYxOC03LjA2MiAzLjYzOS0xLjM2OCAxLjU1NS0yLjY0NSA0LjAxMy0yLjY0NSA2LjUwNCAwIC4zNzUuMDYzLjc1LjA5Mi44Ny4xNTMuMDI4LjQwMy4wNjIuNjUyLjA2MiAyLjE4IDAgNC45Mi0xLjQ2IDYuNTA1LTMuNDIzeiIgc3R5bGU9InN0cm9rZS13aWR0aDouMDQ4MDA0OCIvPjwvc3ZnPg==;" parent="1" vertex="1">
          <mxGeometry x="372" y="342" width="48" height="48" as="geometry" />
        </mxCell>
        <mxCell id="AHNvOGjP9P18lFbbEgM--4" value="" style="shadow=0;dashed=0;html=1;strokeColor=none;fillColor=#EF8F21;labelPosition=center;verticalLabelPosition=bottom;verticalAlign=top;align=center;outlineConnect=0;shape=mxgraph.veeam.linux;" parent="1" vertex="1">
          <mxGeometry x="375.6" y="437" width="44.8" height="44.8" as="geometry" />
        </mxCell>
        <mxCell id="AHNvOGjP9P18lFbbEgM--5" value="" style="shape=image;verticalLabelPosition=bottom;verticalAlign=top;imageAspect=0;aspect=fixed;image=data:image/svg+xml,PHN2ZyB4bWxucz0iaHR0cDovL3d3dy53My5vcmcvMjAwMC9zdmciIHZpZXdCb3g9IjAgMCA0OCA0OCI+PHBhdGggZmlsbD0iI2ZmZiIgZD0iTTQ3LjAxIDE5Ljg5OWMtMS4wODItLjc1LTMuNTU5LTEuMDMyLTUuNDk1LS42NTctLjIyNS0xLjg3NS0xLjI2MS0zLjUxNS0zLjA2My00Ljk2OGwtMS4wMzYtLjc1LS43MiAxLjA3OGMtLjkgMS40MDYtMS4zNTEgMy4zNzUtMS4yMTYgNS4yNS4wNDUuNjU2LjI3IDEuODI4Ljk0NiAyLjg1OS0uNjMuMzc1LTEuOTM3Ljg0NC0zLjY0OC44NDRILjIxN2wtLjA5LjM3NWMtLjMxNiAxLjg3NS0uMzE2IDcuNzM0IDMuMzc3IDEyLjIzNCAyLjc5MiAzLjQyMSA2LjkzNiA1LjE1NiAxMi4zODUgNS4xNTYgMTEuOCAwIDIwLjUzNy01LjY3MiAyNC42MzUtMTUuOTM3IDEuNjIxLjA0NyA1LjA5IDAgNi44NDUtMy41MTYuMDQ2LS4wOTMuMTM2LS4yODEuNDUtLjk4NGwuMTgxLS4zNzVaTTI2LjI0NiA2LjY4aC00Ljk1NHY0LjY4OGg0Ljk1NHptMCA1LjYyNWgtNC45NTR2NC42ODdoNC45NTR6bS01Ljg1NCAwaC00Ljk1NHY0LjY4N2g0Ljk1NHptLTUuODU1IDBIOS41ODR2NC42ODdoNC45NTRaTTguNjgzIDE3LjkzSDMuNzN2NC42ODdoNC45NTR6bTUuODU1IDBIOS41ODR2NC42ODdoNC45NTRabTUuODU1IDBoLTQuOTU0djQuNjg3aDQuOTU0em01Ljg1NCAwaC00Ljk1NHY0LjY4N2g0Ljk1NHptNS44NTUgMGgtNC45NTR2NC42ODdoNC45NTR6IiBzdHlsZT0iZmlsbDojMjQ5N2VkO2ZpbGwtb3BhY2l0eToxO3N0cm9rZS13aWR0aDoxLjMzNTA1Ii8+PC9zdmc+" parent="1" vertex="1">
          <mxGeometry x="599" y="342" width="48" height="48" as="geometry" />
        </mxCell>
        <mxCell id="AHNvOGjP9P18lFbbEgM--6" value="" style="sketch=0;aspect=fixed;pointerEvents=1;shadow=0;dashed=0;html=1;strokeColor=none;labelPosition=center;verticalLabelPosition=bottom;verticalAlign=top;align=center;fillColor=#00188D;shape=mxgraph.mscae.enterprise.windows_server" parent="1" vertex="1">
          <mxGeometry x="592.5" y="438" width="39" height="50" as="geometry" />
        </mxCell>
        <mxCell id="AHNvOGjP9P18lFbbEgM--7" value="" style="shape=image;verticalLabelPosition=bottom;labelBackgroundColor=#000000;verticalAlign=top;aspect=fixed;imageAspect=0;image=data:image/png,iVBORw0KGgoAAAANSUhEUgAAAoAAAAGmCAYAAADs0DWVAAAAGXRFWHRTb2Z0d2FyZQBBZG9iZSBJbWFnZVJlYWR5ccllPAAAQatJREFUeNrsnetVG8nWhhvW/D+aCKYdwcgR0ERgiMBNBIYIgAiEI5AcATgCyREgR4AmAvgi0NcFpRkZq++77s+zlhbnDKbVXV2Xt/atsgwAIGK22+20+pzREgAAAADpiL/n7RtTWgQAAAAgbvFX7Ik/xVP1mdAyAAAAAHGKv3J7mHtaBwAAACAd8bfjhlYCAAAAiEf8zbfdKGgtAAAAgHTE31bHBhIPCAAAABCo8JtUn+W2P0taDwAAACBM8fe4Hc6MVgQAAAAIR/xNR4q/HRSJBgAAAAhE/D1vZVDXyWlVAAAAAH/FXyEo/nY8khQCAAAA4Kf4K7fmmNPCAAAAAOmIvx0lLQ0AAADgh/ibb+2gXMtTWhwAAAAgDfG344l4QAAAAAA3wm9ogWcJ7nkDAAAAAPbF36OAJW8Ml7wJAAAAADviT6LA80xfa6wIJB4QAAAAwIL4e5bI5BXKGn4mHhAAAADAnPgrpMSfvt6TUDzgkrcDAAAAIC/+SsnyLQZqBt7wlgAAAAA8FX/6mk8GMoPPeFsAAAAA48Xf2Bp/KlkkFxaUTUIz560BAAAAuBV/kwPXfdqa45E3BwAAANBf+EkUeL6vEX82zgue8xYBAAAA+om/R1MCzLD172C2MQAAAADUizOxAs811y+39nimSDQAAABAu/h7Nml1c3Bu8CNFogEAAAAOC7PCgvgrtm4gHhAAAADgnTArbbhaHVj/9rnkTQMAAADYFX/F1j3EAwIAAEDy4k+8wHPDdy09EIBPxAMCAAAA4s9CcoUn1r8dS94+AAAApCb8jBV4bvjO5dYvbugJAAAAkJL4M1bgueY7i62fFPQIAAAAiF38GS3w3PC9S08F4DPxgAAAABC7+DNa46/me321/v0bx0jvAAAAgBjFX+FC/Onvvt/6z4xeAgAAADGJPys1/mq+O9+Gwxm9BQAAABB/I8Sf/v55QAJw1LMCAAAA+CD+JGr8jRF/IVn/etc1BAAAAIhR/E0c34Mr5vQgAAAACEn4SRR4XgqIv3wbNiW9CQAAAEIRf48+WL8Ctv7tQzwgAAAAeC3+ph6Jv3wbB0/EAwIAAIDP4u/ZF5dnJNa/f887pocBAADEKZ7OAr7/wjPxl2/j45KRAgAAEI/428XMPQV6/xI1/grhe7rZxknBiAEAAIhDAM5CtfK4LvDcIKifIxWAz8QDAgAAhC/+ilAXeNcFnhvuK1br37/lcRg5AAAA4Yq/ic7wfM9NIuJvYqhNn7fxM2MEAQAAhCkA7xvcfLnHotV5geeG+7vZpsMZowgAACAs8XcW2jFgPhV4bri/54QEoLcbBQAAABguVHKP7nnqs/jT95iS9c+oKx0AAADkhcp9SMH+vhV4HimqY2TOqAIAAPBb/F2GVPfNtwLPDfd5s02bktEFAADgp/jLB4ippcP79a7Ac819pmz9M1ZPEQDgPcc0AcAglKuub7xW4cK6o79zjGvxpfqcHh0drSzc7uWAdo0N9fxz4gEBAAA8YoDrd58ny/fqZYHnmnvF+vcr94w2AAAAP8TfVGBhvwlI/E0stu0Nmu83Lhl1AGCCI5oAoJdIeax+jLWIKZfqh6OjoxdD96hEm7IeFSMus6o+56buseaelXUUt+fvfKzew5pmAABJiAEE6C5SbgTEX6ZFzqWhe1TXXo4Uf4tKcJzaEn8aYv/qWYYWD6jd+XOSWQAAIHTxNzXg3ssN3KPXBZ4bxAKxfwHUkezRD3fnYj+RzAIAAKGKv8neguZl0V+hAs+Xjtp3jr7zJ3Z05Ls8lCD1yCwCAAAhCsCZwUV9KnB/QRR4rrn3HF0XTjHxlk3SPSecAABALOKv8Nm1J1Tg+cxh+2L96/++cg/HSJcNCBnNAAAQhPgbEpv2OKCcSTHw/iTE39Rx+8KA8jwejZG+ff2MmQUAAHwXgPdDXLoDhOPjgHsbazl7cp2hKSBgU2bmweZoyTF3AAAQm/g7GxOkP+C0kNKi+LNa4FlYYIP7uM2zkTGnXvQ/AACAQ9aNvgvc8sB1+mQOP3W8r2UM4m9A+4AH1jTBhKglMw0AAPgmAJcDFuJcwIp40yL+gqvx19LOIBAPaEPQ62ztR+F7JzMYAAC8ESWXAxaySyEx+XxoMd8GWuC5pZ0LtFsYQkrA5eudGxsAAOC9lWO063ek0Lk5IP6CLPCMALTKpYF3NNmarYE5KgseAABAasEb4vqddLhu36SNfE8kPcdoYUEAGmEq+H4krM6jQigAwCzHNAHAWz2z6kdfS8TF0dHRS4d/d9vzutdauCnr4tD4LnVf59X9LXi7yXAvEQ+41/dsJZhMpO4dAACgz4I3HWC1uO/5HXOLliDva61hATTG/Yh3MhHsp8827x0A+oMFECDL+gbRK+vaRc+/udJ/Z5pN9Tk9Ojpa81qT5Kwpm7xpE1T9UAXJS4F7UH3vY/VZDLj3Ga8QAACMs+1/lNXgoPWB3xVlgd0tx8B5k1gxMPO9jtm7aw+pW1kyMwEAgEkRUoxd4AaInufUxd9ee4DZMIBJh/54L/h9ZzXfMSSZhOPiAAyDCxhSFX9qcezr+t1k/RM6/kUnjHw18DiL6tofOyak+MSGnmgM1b+XTZuf7M3leybwXavq86Hqfw81ff486x/+sCQzGAABCGCC6+rTd4G5EBBZCwPi7yLQd4AANMv0kMVaxwguB/T/Q9xW/e+0aVxUv1Pv+XSAgCUzGAAA5Nj2P6JtOySwvuH7pTItLwN/D3M8tVY40+0tcZb0vsu36Pm+y9BPsAEAgHBFx5A4vEcPBGh0gfLCyQfQLNZKwfjTwZa5gYlQN8xcAAAwVnQMCXqfCt/DdOQC/BjJu6AWYHhcCrz3IZbfktkLQJYjmgASEn/KFda32OzV0dHRnYF72Y68xMcQav1pwTCp7vXGUDuAHTbZ28kya4E+sUtQ6bOxUjGG1LcEEIQkEEhF/OVZ/6zflSHxJxHY/iWQpv9UfT43tTG903seJDccOmHkNOuXBPQqGkkKAUAAAvRlnvU7V3fIaR9dkXApnwWyGKpnzRtKevyga3rL6xioBNu5dImhgeVhEIEACECA7mg3ZNHzz251+QoT5ALXUItgGUDz7xbruvZ/oId6ibL2KZfrwtQXaIti302W2lBwXBwAAhCgVfwpsXXd888eTLh+9zgRus4Xz9u+aHtmLQI29FSvWGSW4u108ei+IrAMvQQSAAIQwDwq6cMX1++OQug6+dBziS0x6fjMX+mmXrBz+V7YPFVGWxkXPf9sdujoOQBAAALsTjzoG29ndPHT8Uu54CV9tgJO34nVuude0FudY9zl2yIC1aZr1fPP5pwZDIAABHgvtNTCMMT1azomrRC+3pnHZ6b+1eXZteBGBLpjkflRYuVcC9GucFwcAAIQ4HfrQM9/v8nMu34VJwauWXr6DvIez36b9csIhfE4cfnWMTAzWPWxJa8SAAEIoKx/KkvQK9fvHoWBa/rqBp52fXadcU0soD2cunxb+sFp337GmcEAAIi/IceLzSzenylKD9/FIfKWv3nktDXjzH13m+qzi60fUweQElgAISbxpxa1vpYAZQm5tSVODV7+s29CvOZXbW2g3PC4gs3glcu3CW2Z7DsuZ55nxQMgAAEMoZI+8p5/Y3MxNLk4FZ5lRNZZmE5aFn4lyK/oyuJ46fJt6Qs3Wf/koHsygwEQgJAQuiZYXxfQreXMxxPD1/cpFnA6VARrkXJBrxYXf+sA7/0q658ZPCczGKDDJosmgAjEn5rsn7J+BZ/X1YL40fJ9bg1/hbJkfvDBvaeD8suaX3/ocsyejmskuD+SPjFyfD9m/az7q+qZT3n9APVgAYQYmGf+nfbxfhErLHyNT+cDNy3WndpCWwL7lgWBX7kKWfzpfjCkPExBZjAAAhAiRluJ+h4JdevAHWYrLskXN3CTyOvsCteFuZWldk1v780mpJi/ln6wzoadGVzSDQAQgBCf+MurH31LuCjX0J2D2z2x9D256zNSO5xMUvRc/DfaXa/iwbAGdiequop6M9BXBM7JDAYAiE8ALnvWCXt2dWya/m5bLB2/l7MO95gPvPZEnfFsuT1DZRLpuJ+HMu4BfAYLIIS6CFxm/cuqXHVJPjBwr8r9a3MxLhwveF3c3YOsMioeTJcH+ZD1zxBNiUXosX8NfUBZAVc9/oQzgwEQgBCJ+FMC47rnnz04jIdyUZfs2uEr6uLu/jRSBCgheKddw+qj3i3u4f/4FvnznfcU/2oMkhQCABC4AHwc4AKaOLzfeUouwI7u2eeGv58MsWDiHv6Xp1Q2ggPe9YwZFAAgzEn/ZsCC6Dop4smRELhx8Kx5j/ubtojI5ZAsTn0Py4QFYJnQfFDQPgAAaez4tyHt+HsKImmeHTxv2eP+Lhuusy/gnrTwn/S8l8sExZ9Ta7ejMVYOaCeOi4PkIQYQQpnkX4946vlnm6z/gfLSFA6/e+LA2nEi9G9/7P3vPHuLaewlBHW5HxUfmFJs4EOsyR8N73lR/ehb2mlJUggAQBgCcDZgl18Eet/BxoP1dHc3xQE2lZJ56iNsB8aKhco04TnivmdbPSICAQD8ntiHxPnMPLn3Rw9EQWnpWadSgqWj63zZNVmkY23C0FkmPk9MBow3MoMhWXABg/eTetbf9bs+Ojq68uTefbDIfLb0PYXU33Ss16j+9rGLwNWnSNxGPly+pTxXDDwzuHSRLAUAAO0iah6qG8wzq1Nh4XmHWDvvG663lLbkeGKRjSLhx+M5Y+qrlRzAJ7AAgs8TuSrf0ndivtUHx/vAiUfNeW34XeXZMGtnkzDt8x5LHQPWFtN1Felw+cqM8YYe/33PDJ6RGQwA4If4mwwI3F969gy+1aLLDT7rzYj7qosDHGJBfexwr/MILYA5s8boPplcCR1IGyyA4CvKpddnMn4ZsOs3TeHZ/ZgsiP1Zup103F7fkibTDu7g2GIBH1ycce07+szoRY8/UfPNkpYDBCCAu5375QCxcuvTIuhDCRphkdb0rOpd5SMu0eQqH+LaLJuKTOt+sopoyOD+rUe5/HudGUxmMACAG+GUh+761c9x46Of0NCzLk0lMOhQgCdJ17K+bhmJ6/eJOaPZ/T0wnOSS2RhiBwsg+EZf1+9ul+8bJz42rrRlUl9v7DUndWJtYGmPHU21IB8iGS9JW/+0+HtsEvu6D5327EMz12eIAwCkNJkPPbv12bcyDh5bjKQFoFSiy2XL9ww9zaOwcO+c++tunM33ToeZtPzbckD7khkMAGB4Ip8KLIj3PiyIQs/ivQAceEJL3UKbd7H2DBBtSwMbDl+YJz5nvHftPnYQgX1DM562ZAZDpOACBl+QWMyUy+bJgwSMIpF3JnXcXqcEHvVvqo9y5anPquu7aBCX68DbP/XkD2U13hdn07Y+OSAzWPUdMoMBAAzt5E0kTMwcPs997BZAwXe2HHEPXev53TRcg3N/w503nvq+b/13nBkMAODBJG7SXfroIoZnYKyaLSYCz5cLPWMn16+A2G5yA4d6NFyZ+LxRjmmfgZnBJTM2AIDMJD6mxEcfkXFp8Zny2EuGCCZP3Nhq70CttZz7O64PTg1sPgtmbogFYgDBJep82tzwdyiL18xigojPC8RKYOG9FHzGu7EX6FrUuWHh/hnguFkkLv6mHfvgssnCPPDM4HsygwEBCDBuElcTuM1iq7YSRE48bvbvI99ZrkW7iBjV9dkk+NFxI3CITYDDJ/Xkjy89Nn+NG7+qDy56bkTUteZkBgMCEGCYkHidRB189URbBUwmiBSeNvtGn607hiFFuseItq50yeadRiIAkz73V88dZY8/Ue/9vukfVO2pCsmvJK8JgAAEqBcSucPvvzSRIKItZLmnbf515LPdeCxux1gSQxNT3xKfO4Z4DYoOWbznWb+yQF2uCYAABNgTEsoV68MRS0r8PQoniPgaG6QE0mLEO1PPde1xtxrc7tqadjtSRNpCwoobOp8H/l3ZlMWrwxEuevaDksxgQAACdBMSrly/Tcx0RqGEa9PX+L+HofF2ul1MuLv+9uVaujjwx8z/5IqkrX9abOUjLjFvigEemBQyJykEEIAA7Sgh4WPwtFoUngQOfy88bfcx7t9ZZsatXfh0LX3KiFr81SkjG0/f4yJLm88C12jM4tUW1tue11yOrWcJABDz7j2Uc1dnQ6yBuqahjzyOeGdnvhcz7nEe8VnPdzn37D3eJz5/SBaM73Jm8L30NQEAUpy8pU6OsFYwua9bx4JYGsqlx+/sSaBvdTnJYznw2j6JwDLxOUT6XSw7bAIeEekAAOMm7+U2TG56POONp88wGfjObB2RNhvRr2YdvyP3SHgEc/KHtq7OXItPg6frzDtYHZ9t9WcAgNjE3802bDrF93gqcu8HvrOZ5fssB9zjpcQi3/G7nhy/x5mlsZrrM3bv3wmf+4jnkLLlu0sb/RkAIDbxN93GwXOHhcJHhgirwtG9djpdQbvm+sRn5QL92LV7Pzc4RndWvjaL78ThPGI6FKFo+f4h50WTGQzec0QTgMGJWyUgxDIRro+Ojj7WLaLVj6WH9/xnn/IvepFXcXmuFnt1rypj+UGX5HjfxioL9KzH/dW+syEixFG7iD3DzsqXvWVNf9I/uz7ThT42zfYcojYxcwv97mPdCSu6zZ4GXPOD4HGHAOJQBgZMTdw3EYm/14W44XeFp4K17+LjukyP+m5VcPpxL7Py1f2qBXbZ8/6+W3r/JvkqMBb/tfJpITPvKaQVrmpcfrHU72rPDNbCcDXgmsstmcGAAITExF+R+X1yxBB+eLg4NvGt5zu78VDIqg1E7olo++GoDR4GjL9fYvm0eL4cuSGz3jf0PDK12NdmwpuJtmsCOOUPmgCEJ20fT/uQIDQL4KrHO/P9qLehSLrf/nZw/51PcNF1Dk90XzQhmnIHz//Z8vcp0fytavPVmPF04Jr/6NNmALwCCyBIc+1osTAqJN7HpL0TT8Hcb41gp36ZnwLoW8u7y3cJCvodjrXytfUVaxsdHXdX+iI6u46nujmRzGBAAELU6AXiMsJHi9b6l5k76s0HCqF+nWf241lf9LFktejYNJv3ZfO7Sg/7zGbEdWdkBgMCEGIVfzFbkkKL//vZ8Z2dOVxobfApYDHSNfbvm8V7+sviXPLFUZ/JDQlAkkIAAQjRMs/cZpCaZDXQYuDj/e4W2TyLM1Zzn+lYt6VDMdI1+/fOZnta+p6+Gcqh8CoCWSoAAQjRoC1JZxE/YlP8n48L1SZxwb7PbKTV5dpBO226xpzpJJGFpfuytdm59m2sC29K5hkAAhAiEH95FrclqamenpcxPXUFbffe2WXmp+XSyIKbDSzFoQP3XcS09i398s3yeDd5fdUvc4f9xUbh5lKPQQAEIARN7JakJouAj/F/qw4L+HVifbTURaU7CwtLJ1CICDpdtmRjUVCbxOe+KfnsM+05AUAAQngkYklqSgAJ8dm/ZGm4fg8t3koE3jS5hPX51UuH4m8zsOTIV4vtaGo+yT0YU01CWnrczMkMBpdQCBrGTNYpWJLWDc+fByZYQxWtUuyOmlN12Vbv2up/2Vscq+t3+jDw7xaZnXhFkwWxfZhP/rHcH1Udx4+cGQwIQAgJ1+fG2qCpoHKoQgqLw3/vz8d3+K1hwzGv+uPpod8rAVH9GyUeyxD7j7bKlr52FoOxj7meS08ZkmAbXMAwZDK8SURINLni/g7wvRX0Xq9pcv8qcVS0JA/YcAObEkKXno/53OB3FmQGAwIQQhARsZ4be4jY4v/Ab5rcv7sjyq7rrFFaPK4C3Uh89uQduHLFlhwXBwhA8J2UdqqrmgVQuatCtIAiWv2mzv27H5uo+t6s7zWEEe37WvjkngtAG2NnjpUeEIDgJdXkNMsSiiHT5TUQUmCDdYP79/1JJGd1QqG6xiIzXxJGOvzhi0djfu34Fu7JDAYEIPgm/tSCk1Lx0lXD704CfaYTerK3fK0Zd3nNhqPJEm/aCpgLzyshCB5bMb/KwjvnzGBAAIIv4m+SpeX6VRD/B7ZQbse6+L8661jeEDN2l5mNZZPs/188eg/rFmFmCyWI7xkWgAAEH7jO/Kx5Z5JVywTtK/8bKGrBHV8b6sCVLePyN/S1HkzesISbUls3fToN48UTAfgqsnXIDQACENygA9CTO7eyLv4vgCDtpoV5TY/2DiU67mr6WtkiPPKG/nhr+L4lNoRfPHwXPm36LskMBgQguBJ/Kbp+Faumnbnn9z5pELUP9GrvaLL+dSmN8qXmXW+yt9NBXGw0us4tvombnx72D46LAwQguJl8sjTPjf3e8DvfEynaFgtEoD8okVZn/cs7bjbOGhIGTFoBx46Ds1DmFg8E2NLgSSSAAAT4bdI7y/yKz7HJquF3RQDvrmnBIg7QH64arH993KMHx6lhK+BYQeJjMfm6EAnXQnV3ZjCZwYAABOMCQk3uqR5NVHscV0BFWqcDxS3Y46HFJV/2uNanht+ZOh4uHypI9DjKPXwnL56PaY6LAwQgGCdV1+/rwjxQWPlErXvOg0K38Ob6vWgQSH3do0XL+zb1zoeOh88evxefOSMzGBCAYAx92HyRcBN8HSKsPKPt/a3o6c5QVqbzBtfvEIE0aXH7myoM3VsAau9C6eOL0S5z3yEzGBCAYET8qQn9OuEmWLQsAqEI47wlaJw4QHdcNVlhtVt1SOxtk8XQlAVwyOkYwYmXhiMhXTEjMxgQgCBNyq5fZZG5bRHHIbVNk4jY0NWdcKHP6h363rIhmxODAiYf8De+un/vWn7vU+iEmoeWJIUAAhBEqCaTmyycGDcT3EZi/dvxCQEYnPjzWSCNHhM6tjH38DmUVfaq5d988+yeEYGAAAQR8Yfr9+iozQJwEtgz1S7OHrq0YkZZlk+7iL8etf98mzu64pu4VRuhjx3G/usckfmXJazanqQQQADC4Ak81dM+9sXfRcfJNkRhD+5YaYHRVXCHOA7zjn1R/Tuf6oqu9bvp5NrVSTtXHrZ/qb03AAhA6M11lqbr93VC7yL+9OKVB/iM1AN027dOu2aW6szOwtBGoHDUx34RKp6Jv9OWTOxDInCRmT1eb/AcTmYwIABhyMJwmeCjq1p/Hzq6frIs3LI4Ob3cOouefWtnqR1r/Vs56r9dQyN8cv9e9BV/eyLwwlMRSGYw9OYPmiBZ8Zei63ejJ/+VoUXON/6ip3cSTurs531XoFpIVYmTrgWZVb9SSQKLvrXktOVmLtS3XYivvMMz5h5tRhYCxdCvtKj2aYO1Oy7u41BxCwhASIdZlpaFSFlkbgdOjkWgz5zTzWtZ683AukYUKi505qrKqC7f/RvVj5Ql+XvLkW5NomiWycTFvdQJTwvHrr0eCdcyrnwaP6OPxlPPWj3z18y/BAz1npfV5yPDG7qACzhB9KJWJvK4amFU8T5XQ8RfwPF/UI+yAnVKAFDiTrv9PmRvdSKV9Uf97Z/qv/cVf2rsVR9l8XvK5JIimu7BRnZ/m+vxb0/e+4vgUYgPnvbtqe5fAK1gAUxP/KXk+lWT9MVIlwhxNXGx7pj1/V4Iqo3EzcAxp/rQl6y7S7kv32u+t8jsWN/U860CGENixZxVf6ja19c+rjKDf/aJQwUEIKRBKqd9XAlNgCd0mag4t7jZKrXwMymAXhqskLZqe7ZZ+ChWbB+VFLIZEp4ACECIEL0gnUX+mBu1yAu6eopI2ylFy2bvJI0BY0yJnUst/GwIn6819zG12Hfz1Ppay1nb3mz2tQhcZwAIwKTFn5qwYq8aP6i+V8tiHvLi9aPhdylaZb4aHl/XmTk37yFUP6+zcn+x2K6hbJIk7zOEeYHMYGiEJJB0iN31uwvs7zTRKQuJCpauPs8N52kWgbfJQ82zFwn2fyOWENWWe0kdpeUx9rWhv1u19IdSg04nwEnwKZB+rzYm9yx/gABMlGrSu8zidWXuxN9Fx7ZQC7YqlfCoF+xNwyIacvzfqkHwpOj+3UgLHt2PlpmbjHqVzHJTc2+2hehOaFhp+5F8EXj3eRZWFYWCzGBAAKYp/mI/MLzrcW7F3oK9L4abrEKhCiUlaJvahMQWGSHhclPV9H5dWKemgQjAQsAKGOJ8WnJcHCAA0yPmnd9FW6avcu/q3e+yZsFuipMrAm2X25Zkh4JhMWpTlWduLUBXddZdHc7gItHrpGVD4tWcONRlHXgi3TzR8A9AACa5UN1k8br7Fvpw9qbnV5PdU8tivW742xBZNYliR+5BH8gFr+VK/L0mfbRses48bN+fnvUF1f+XfUWg4LF9LrnnzGBAAMYv/tQgv4708Vpj/rT4XbaJnYY4uRAFYJvrV/E50SGRS5Tu0Ba2L5bvfZW9WbvV6SNXLf/2i8P2rRtrGw/7g7rXRzVPNNz37p2rZ7vP4vCmvB4E0PbMkAaUgYlT/L2m/0f6eKsO4k9N1GXHhbWOEOPkLppcv1oAFQkPDdUnbkZeY5bZLfNy1WbpPrDAu6LuRJCNx31CbZK/VGPj9Vzn7Fd3tRovKp4yttqpUy1mzzNImiOaIEoBqBapywgfTS0kjaVeeog/xV2dRWXr8TlPNXSxit5n8RcCbxNUH4cWg9ZhAUtL96os0+d971Vn/LtKUqg9fSfA8ZQCdx0syhAxuIDjE39FpOJPcSEo/hQ/GtowJJRYuOrQL84SHx6Dz8G2fIb2rqD5EKG6cNi+f7eIb/CLSzKDEYAQj/izuUjZRmW2rhqe/SbrH5wfS/xfmzCOuV/0pXdNNN1+yvKXW7g/9R7Ph57coP/O1fmv+YCxBm6ZkxSCAIRIBrOlRco2m7qit3qBVoKtb8LLS4OF5e+A2uaqwwkX15H2i6GommiPXRY+HTepxJ+tRfKrwHnF312J64bf/aDbecsykLONAQEINQuVcu/F6uK7aHjuoQkvq4ELmU88dKiDWGbxhgSMQQm6R30c4NmhfqWtyo+Z3VJKdwLXWDmch+raakOX85bdmcFkBicGWcBxiL+YXXwPTa7fbHhW5s+GBSyEiXCTtZR8SeAUGAmUQC51jsJqb0F04RZbDXX97qMsiNXzvDjqx6rdDlmkcQH7vyEiMzgxsADGwTyLt7jvVYPAKbLhRXnrRGURSLuct8T9qQl9maVZ9Hkohf64iomSdJO6Elx5jShFAPrPmbZ6AwIQQkCXfYjV9btoiYcaXOi6waroa/2/tRatt1r8rRF/4KEAPBmw6QJ/uCYzOB1wAYct/vIs3tM+FN8anr3IhlvrmhaiwpNn32VzqoD+zq7BSI6rSpW/BK/1f46eocl6uuEVB8GsmkfWWG0RgOA3Mbt+1y2xf2OOvPreIKhdt6cSel+ztyKtveLBIi4AngqSrmdXmewqeWZS03d/8oqDYHdW8geJmFTwF1zAgaJjNYqIH7HJ+qeE2hi3d52wdN2euwLANwMn3pKREbYAFCzHkbt8job+DWGJQMJIEIDgmfhTE+x15I/5YEjobBpcGy7j/3bibz3yGhA2XwTmhzxzl8hSu5FqseiDhxuSjCoCCEDwjthjvNYtyR+fDQnLwuEzX+BugezteK6x4s31ov0Xm5RoKMkMRgCCJ+jBGPvRPd8bnl89ez7i2t9qrptn7txmC6GA6w0jJI4N3lDXm04Ccl0VYIoAjIrrQ8XSAQEIdsVfkcXv+m1bJIoxAqlBaBUOn/er0HX+YZREwWsZn74iUJeEmnty/3WQCBLupoQzgxGA4Ej8xXzax3tWDb/7NOK6Te5fZ/F/lFuAGhH11KUmm9oYVh9V99GbeC29We27uQN/4bi4CKEMTDgoy1+ewHO+tMTCFSOu/a1lwXXBhq4NDYuusrxcZ//VhHw/Fj5lfoaE5DWbnZU+dg/CQ71TtdH4SFMgAMHubjqV+m7rAVaFTkKrztKmd7UxuDf+x2iJduG9DGwO+LtljONODBNVqmhezaUXNEX44AL2X/y9mt4TeuQm69+YRcPX7N9ccnJmxIAvQqFpM0bzBE2p400BAQiGifm0j0M0BYmPOSrrR8PvnJ7/KxhcTXwOhCAASQQJnxmZwQhAMCsM1ABjkHVbVNpYNfyucPxchUBficWNDXEwaTjVhESQOCAzGAEIhsRfSlm/pgXgui6xxBPh9EXgGmwUIJTxigCMRORnI2pWAgIQ6rnPcOkdmnCGsGr4XeHBc+UC1fY/0z0gBAGoT/nh1Jt43vE9zYAABCF0gG1BS/zSJmPa42ffRcoB10OfUdeKo7+Ab/w1cFMGYaHqUOKtQgCCgNDJszRO+7DJpuF3Jx7d533fwGotGjmwHXwkb/jdd5onKsouRcsBAQgtIiBL1/W7abAM5EMvqorPNu1ePXr+XbX9eUMA/U74qSB7JfyWGaECEBjVmFxkuIFjYz7SUwOWoRC0R+g4sFSzqm6rz13DKSC5gfb2dbIq9Y5aBcsrS8laL5a7hJWTDJcvxDHmsV7HhdrAnnK8JQIQ+okRtbCn6PpVE8WFwQlj1fA730XUNKO0C4RLo4WvGvN31bz3ic1MVOwyg09bjvQED8AF7A8pBtEuqkniY0fxtzLw/Sd0OwBj/Ojwb84zysLExjSjhBkCELqhY7lSs/Rc9DlPUsfx3RmYqADADA8dxvWL2gQaGNvgljO9rgECEBrEX5GFdci7lPhbDPg7FTMk6VYgeQLAkPjT9f66bvCuqh8fMsrDxMQlmcEIQKgXfyme9rEYKP4yHVPyVVB4A4A8apxeDRjfm+pzquYImjAaOC4OAQg1qKSPnIWhF7iKAPzmoo/17wBqjtjQjNGwbCtrBQjApNAFf1Nz/X4dmxmm//5B4F7IUAOQR1n4HwTG+C1NGQ27+qaE3HjGEU3gRPypgfCUpReD9mGkZWDXfko4dw0wVkHmf9ZcZ0tvBPByjKu58ZnmjG5zcEEz+AMWQDfMExR/mcTCoOlTNmIidB0AaBmXUmNcWwGx0sdFqQ87AARgmmjX71mCj752da2GhA/OIwWQQ1qwsUGLj2sygxGAqYq/PEu3QKZkJthE6LsX9EqAJOYM8IcZmcEIwBRJ0vW7J4ClBn3e898fPPFDu6sINgdwMy6b5opJRp3OWFHvdUlSCAIwJfGjEheKxJvhs9B1PvX897XtXonAmwxXE4CIABQs93FGcyICAQEYg/hTlq9rWuI1CHgysi3V35d9Jxsde1mHykwj4BxAYIx7tlkEf1HrIsfFIQCjJ2nX77td31ghfD2wLWuthkdHR8oCiCsYYDxfBDZ5RYa3JCWjwCXNgACMEp32TsDrfww+H1L/3dDJ4qxpYapEoDphZMXrARi9yRts1dFjFKtQWsxaPDSAAAxS/OH6Pcy8765PC+kxGdSTDuKRIqUA4ylHlPqYsWFOdk3gvSMAoxF/kyzdki9dd33Lhhp9u3Ysqs+jkJD+0mIF3GS4ggGkFvSbPvNl9bnP5GIIISw4Ls4BHAVnTgCqnSyxDd1QwmtVff7Z+29/ZW9xQLnwd93qzN8m4f5o4HsBUkTF115VY27VMOZKvcFjzIE6TeYjzYAADFn8KeGypCW8RGX7fmw6skrHo9zTVACim7wHvclb682d2uSpsYbVB/bhzGAEYLDiDwuS/zxUE8x5y3tcZmQiAgC44Eon5gECMCgBqOL+SlrCe86rCeah4T1OtZAHAAD7nDaFDsB4SAKRFX9niL9gmDedWkBtQAAAp9yTGWwWLIBy4k+5fp8y4llCYq13mS8t77bI3tzBqpg0ExIAgEdzNCAAXQtAlTRAMcvwaI0HfPee8+rHl+zN0ovYBwAwy6qao09pBgSgr+JPiQFq/oVL76wzbfG91GIQIQgA4NEcDQhAG+Ivz96SBRABYfOhqTRMw/ufavGPaxgAwBwX1Ry9oBnkIAlkPHPEXxTkg3ZQb8kiyj2xoQkBAMyttW0nRwEC0Br6PFs6ZPi8jCk3oAOUcU8AAJjlvql6AyAAbYk/5fK7piWiYDX2AlpArmhKAABjcGYwAtALcP3Gw0+h63ynKQEAjLKLuwYEoH2q3cdNRtB/TKyErrOmKQEAjHNWrcMzmgEBaFv84foFAABwy6UuwQYIQCvi7zX+gJaIC86bBAAIkjnHxSEAbaEsfznNEJ2wl3qn9A0AALssyQxGAJoWCUX2dvIDxAcCEAAgTMgMRgAaFX+qY5F1FC9SLoQTmhIAwMkcTlIIAtAISvzlNEO0fBbYJKj+UdCUAABOKHWFDkAAylB1qLPqxxktEffuUeCIITLDAQDcck1mcHeOaIJG8adcv08ZBZ9TYFN9Pupj3YZsEsgOBwBwj5rDT/U57dAAFsBmOO0jHfLsLZus1/vW4o/4UAAAP5gMmcsRgLC/sKuMX1y/aaECiZ+6uBDU5KIr0d+zSQAA8E8E0gzN4AI+vLjn1Y9HFvak2VSfh+rzI3tzKexQfUNl+5Y0EQCA1yyOjo4uaAYEYB8BqHYOBS0BAAAQNFeVCLyjGX4HF/Dv4u8S8QcAABAFMx2rDe/AAvir+FMxYI+0BAAAQDSQGYwAbBWASvxxsDQAAEBcbLKBpb5iBRfwf+LvBvEHAAAQJXlGZvAvYAF8E38FHQMAACB6yAxGAP4r/lSpl8eMs34BAABS4KISgYvUGwEX8NsZrog/AACANJgLnP8ePElbAHH9AgAAJEnymcHJCkDt+n3KOO0DAAAgRdZaBCaZGZyyC3iO+AMAAEgWVfnjPtWHT1IA6qrgVAYHAABIm6LSBPMUHzw5FzCuXwAAAHhHcpnBKQpAlfRR0NcBAABgj48pJYUk5QKuxN8l4g8AAAAOsKx0Qp7KwyZjAdQvVRV8xvULAAAAh0gmMzglCyBZvwAAANDEVOuF6ElCAG6325sM1y8AAAC0c1bphlnsDxm9C7h6iUrNP9KfAQAAoAdRZwanIACV+JvSjwEAAKAn0WYGR+0C1iZcxB8AAAAMYanrB0dHtBbA6oUV6sXRdwEAAGAEUWYGR2kB1Gp9Tp8FAACAkShPYnRJIbG6gK+rT06fBQAAAAFKXVEkGqJzAVcv6Kz6cU9fBQAAAGGiyQyOSgBq1+9TRsFnAAAAkEfFAZ7GkBkcmwuY0z4AAADAFEpjRJEZHI0A1K7fM/omAAAAmBaBCEA/xF+ekfULAAAAdphW2iNo3RGLBRDXLwAAANhEZQZfIgAdoRu/oB8CAACAZWY6BC04gs4C1q5fddYv1j8AAABwQZCZwaELQCX+OOsXAAAAXLKpPh9DOi4uWBewrsiN+AMAAADX5Flgh1AEaQGsxJ8Sfo/0NwAAAPCIxdHR0UUINxqcBVAXX6TkCwAAAPiGygwuEYBmuM5w/QIAAICfzCsRWPh+k0G5gHWDLulbAAAA4DHeZwYHIwC161fF/eX0KwAAAPCctRaBXmYGh+QCniH+AAAAIBBUuJq3mcF/hNCCuuCz+qzoTwAAABAK6qSQo6OjB1oCAAAAAAAAAAAAAAAAAAAAAAAAAAAAAAAAAAAAAAAAAAAAAAAAAAAAAAAAAAAAAAAAAAAAAAAAAAAAAAAAAAAAAAAAAAAAAAAAAAAAAAAAAAAAAAAAAAAAAAAAAAAAAAAAAAAAAAAAAAAAAAAAAAAAAAAAAAAAAAAAAAAAAAAAAAAAAAAAAAAAAAAAAAAAAAAAAAAAAAAAAAAAhDgK8aa3223R+FBHRyteLUC8VHNAXv3IB016zA/gb7+eVj8mhi7/UvX9Na0M3gtAPcFP9edED4ppz8uozr6pPj+rj5r019UAeOG1/9u+T4ITy5+BT7ozgUt9q9phQe+qbedlx386ZKyPYaM/u//9j+rTu/mjeqebyN7DDb2xloXE+9Z9vQjkmVfv1sz/0z/XsfV9x+vDbq08RwD+3sgTPWA+6Z+5oa9a6w7/PWVLQNXeqkNfCl7yIlTxoy3KS4FL3VZtwOJa387bgG9fzRU/1M/Q543A34NpTiXeb2ACsG1ztFsvHxKdt+bVj1Lwkue+tOWxB417phv4ufrc64bODX7lVAufZfW9z0oIaYWfGqXw9T6zdkDEqMX8em/emKu5i2aByMn1WnG/t17mqTy8NkxJj3Nv1spjV42q3BDV52lP9LlgosXgo9qxVZ8ykU5dZvJxJkVKEwMkzWRvUXzSc9mEZoEE+r1aL5/0BiiFPn9mYK0882WttCoAd8Ive4s9u87MWvqG7PDnekKPXQia2oF8YY6ExMj1XIYQhJQodZ+/jPw5vxhsvzQE4AHh5/Mkme8JwSK23qx3HkXMnRrAAZN9IUhzQCJ9XrmE72Pc+OjQMFPhYV64gY8tNKIyoT4GIPwOCcFlhJ3bpJVukoobHaBJCMa6gQQ4wOsaH2Esvcm1MvchhtiYANRWPxXfd5/55eod0rmfIgr4Ni3QSAYB+G8DOcMtDAn19yhEoKHkD+/WymNDjad2vk8WGtDmrv4+9MBXQ8kf7yEZBOA/LmNaGAFa1slY+rqJ5I/fvsP1WikuAHVQ6DILy93blVJ38FAFjq0dB8kgAP8x1fMGZWMgFREYuhHA1hpWRiMAdT2/WeQdXE3mwcU7GE7+8KpTA3i6MN4TIwsJ9fUgjUCGkz/e49QNfCzUYBNd+bxMqIOHZuq2aZUjGQTgMHOyhCEB1Np4Hei921wrnSaDjBaAWuXHcuxNzCLQtiAjGQTgMNf6KEaAmLkMLRPeUvKHN2vlsUBjLTO7B7cjAvu/pzKzH5NJMghA8+JY0gwQOaElTtpI/vjtO12tlWMtgLOExV9IItDVDoNkEIDmxRERCDGjhE1Ip4W4WrOczAODBaBO+GDy+k8Eehn0ajn5w4tODRCYCKREDMTMlxCsgJaTP97jxEhzPLChShb3gzude3Y0vwpjLBwArSwpFg0Ro/p2CFZAl2ulk2SQPwaqZAKYD6Pi3i6Pjo7uPLon1wJM7WwWdA2AxgVSbR5PA7vvjf7ExAvd0Yy4qtbGu2pt9LJ9HSV/HForH7wVgLqR5pmbIs+r6vOjYdLJ9eckezPjThxNHhuPOnWZuS/I/ZoMUg382BYKcMdV9VnXjcGqr607jI3dfPFvP60+/9NzR8HmsRPfqvu9oTsaZa37e60I7zq36vV7emDzMdXrpsl+vxNYvhoDXCR//HYPXq+V+lxLm6i4urMh7hFlqdT3+2TpXh99y3pVtRm3fuC1xViVKhB6ThbD5naWorDUJ9T88WxxnDzbmEME75f+bn7uXdq0gql3arDPP3r8vh49WSutjqnjHg2kdgm2/Phql/ChUsLn1edhiNlYWQGqz1X1+ZC9uVZM7jyUafujT8rdcfLHe0qWBAiJaiyv9PzxZ/V/LzI7lv2dhwXARZ9/0Rbdj9mbx02aqY+lwRwnf7zHajJInyQQG1acBy38LiTFlJ7M1ST+QVgIKmGqROqVh+PZpxIsJINAyAvjQm8kLzLzMWIFZwaD4/6u3MqmjCY+9m2f1kqrySCdBKBevAuD97ETUucmrWi6Y++E4NgdjorNUFa/B0/HsW+Ci5NBIHghqOcO02OeJDvwob9fGBCBn3x6Rk+SP5ytlV0tgCbP9LMupPZ2OOcDd/TeuXwPCHbfykpwMgjEsCgqN5maNy4MWwFKWhs8QHm3JNe5wrPn8yH547d7srVWtgpAPRGZuhkl+k5dCSktOvvs6H12+TrZQfSEk0EgFiG4yN5ipUy5hK9pZfBhwyO92fHsfGBf1yQrG8AuFkBTE9FCu3xfXHfwvR1907347vLdDa7cw12W1U4NYGnuUHPCqSERiBUQfOnnq0w2KcSL9cmz5I/3WDHiHLc0kDKP5obE34VnnXyhJ/PNgV977fI1vKORXNxIBgFEYPjWCUiPb4LX+ou1stMG0HhsYpsF0IQKXfkm/t5N5sqts957oSG4fPeRFljSz04yCMQoAk3MaVPOCQZPkPR85a4fxkDyh9IKt6GtlccNDZRn8tkxm+wt8cLnyVy5hD/ql+m9y/fdO1PiTzKgdaEtoxvBa5IMAjGKwAcDC4ACKyB4sS5m9afv9N7YePBI0skfD/oUH0kroPFkkOOWBpLm3NezAA90+JsAjy+T3jF8e/eTRQ2gYc7I5AvoUhMQfEFqPfQh61Z6Dfqqfy6Er1u6EoDSYuK2yxmdMAwDyR8bHfyruAupUwM4RNoVPKEwNHjCz0jWSunkj/WetvkqfLtG3cDHNQ00EW6gjQERAXZ2NDvzv+TOhmQQiBLtNZB2BX+iZQGCWCvV+F8JXttoMkidBVD6C29Dcf0GjLSgei/4pN3AJINArEjHAhU0KXjAX6E/gKHkj4dQ18o6AXgi+B0bnUgA5jq1En/SyR+/LGDaHbyRXNRIBoEY0WNH0hWUM1bAA2LogyaSP96vlYsskGSQYws7zq+MG+OYSv4w/S5JBoFYkd70FjQpOCaGPmjM/Wt4/JcmGuOP9/9Bm0gl1eaCcWMOw8kfh97lTLhTX/EWITZULFA1NpVrSMrd9LeHj3lSPeNNQK9l1TC3QfM6I+k23Th6BpPJH4eE4aXgdykjj/hY++PAf5NsoAdi/6LZ0by6tqpBtBDcjbwmgxAiAJHyXVAA+lgQusjCswohAIchmYi0cfQMNtdK6Q3gazKIdF3iY8MTzXfGjXFK4eu1iTGSQQA6boCFxRaAdbSXSXKdWTt4BhvJH8GtlYcEoGSAJLsts526zAwnfxzY2awykkEAWhE+PQHAFXPh6/1w8AzGkz8OjP8H4bVSPBnkkACUygDeBHiSRmjYSv54D8kgAJY3wdXkX9CcYNnIoOLYCl/HhMM15pvwv+tKaVoASoH4Mzsw88xe8sd7Fj53agCP+IcmgEDXGDUvz4Qvu7adF2Ag+cPlWilq9DEpAH8whILa0XS26nEyCED3BU/wWjnNCZZE000m7/pVfHPwOC7Xyk0mGwssejLIIQFY0P2DQFowLRwPZJJBABCA4Fb4qZjsZfU/rw19xYPl55FO/ohqrTymywc5SJX4sxrQemBns8pIBgFoY0MTgMdryUSLvsvq81j9JyX+CkNft3CQFyCd/LEYsFZ6mwzyB0MgSFwlf7xHmcIlY0SUqZ7C0BANuh4YDQFjNsZNHWjV93oOnyUG9++3EX8naVUtM4HC0AjA8HZseSaf/DHULL/IOBkEoGm8TmkFMCkQA7lP66ewOE7+OLRWSgpAkZNBcAGHhy87GpJBADr0aZoAILuIYK0cXP7M12QQBGB4SAuksQKOZBAAO2xoAgiQO9uxf54kf3i/Vh4SgCuhmzuh34t3aiX+pJM/Rg1MkkEAGhF1QdGcEOCm5dbB9zpP/jiwVnqXDGLSAsgiLo8vyR/v4WQQgMP8RRNAwpzbLvxsaA355tl1dpTSAlDqZeVYcuTwLPnjt92RT50awCMkxyznCkNIXFVrjPU+61nyh+m1cpRR6JAA/Onp5Jc6vu5oSAYBOLwQTSQXIkeWFIBBQqfqr3eRrJVfBcfwJvMoGeSQANwI3hxxgHJICyLpnQjJIAC/IhmEvqI5IRBUyRcXWb++Jn94u1YeqgMoabJVQYpX7FxHd2ol/qTLSTx5XqD2NRnEQeV4ACk+CV7LR/evEqUhnfmOiDaP6qfnjjdd0mvls+dr5dnQtfI3Aah89oIPu1PjC8aFG4UfOJwMAqFu2qQtET89fMwf1Xpxw9uGPfF36tjgk2oCYZkNKAx9bGGndM24GLWQ5Fm6sZQlPQAC5VL4eiuaFDxm4Vr8GUj+CIlBRqI6Afhd8MZyAvrZ0QyEZBAIcdM2ER63G0IhwGNuVcyfB6FeKa+Vg5JBbFgAFVgBh5O6ACIZBEJDWf8k45BWNCl4iBJ8Fz6EARhK/oh+rTwoAHXtHskdp1KnN4yX3p26zDhLlJNBIKQxq/qqtCXiOy0LnvLgyX2YSP4Ijd4ngxxbfLHX2kcPBhV9pHAyCITCTHghehEs2A4giU9WN9aIN0opAfjNwM3Ntak2hJ38mct7TTz5Y1SnBnA0Zi8NLIiIP/CZaw/GXcrJH+/pZTSqFYDaDSxde0q9pHkAE7m6x/vsrVaeKxHGjmZvp0kyCHg+Z6i5bWbg0l9pXfAYH5I8WSt/fR+dN6F/dJh8pAWbsqzNXVUKb5nElcVvubebeP3/1X+/dRDoiuD5fWezoBnAU/G3NHDplYuzVMErVKKFCUOMpHfri6u5meSP2rWyk+egUQBWk8+iamBl4s2lxY0qNu2TCNSqeV4zMFT8ojrW7txGqjvJHwfhZBDwWfyZGK/faOHkWVdz3qmB9UXSsDNVnrLqPlcO2ofkjwNt0nWtPO5wsVtDN1lqV6vrCVy5F5Xr5r6lIxWZPZcwyR/1O02AFMSfqv23oJVBGt2vpDfSrmIBWRNq9FWXf3TsqLPsi8Clq2QLbfV7zLpX7d+5hG8M3lOekfwxqlMDWJg7SoPiz+TGG0AhHVta2K7yQfJHI52MSMcdL2ZyMlJi59FmsoXqOEp4Zm9Wv3zIbsegcGVH0yDASQYBx8Jvoj0Xc4Pib431Dwyj+pd0OJPttYu1sp5OySCdBKCejFYmbzZ7s6wZLROjrGt68n7MxlvZ1N+bcAkjcAR2NgAG5g81Np8sjNErWhtMomPZpa2Apa2i/SR/yKyVxz0uZmNSKrWoupEUgrqm39LA5C3qEib5o5vw5mQQsCj6Xq3O1UfNHXML43PhKJge0uMuk7cC2ooFJPmjQxu1rZWdBaAuR2AjLmWiO9GztggOUvla9Km/f87eXL2FwXuWcglj3eoGpn8wLfrOtLdgJ/xsbDpeMqx/YAlDVkBbByiwBnSjbOwDAyZH5T51EXipdsU/svq6SErg/U/fW+GosdW9nQ6p3aWV+hP9tVs7V238p+CCr/qLRB23RRZf6Y4XqVp0W1X7SQbVzv/szQtjyPfE3cm7/2+bcxvHvgm+h92cHBMLiVJT2uMksQ6tpMvAWFh3jNbN1ckfjyyDnVDVBD5ICkCTpQ+CXyyrz4chtQJ1KZpLyRefmcveHrvQSnAhFSgvKABjRGwBEhQeMbKwVReV99DIqYQLPhQBqO9VWbhLH9ZBR/e7zuRd4T6tlbUbyz/6XklZA6oXoNwUc+aKgzufoR2pFL6XU5+KJhsoPsrJIBALagHC9QvO1q1MPjb+zMT8bCj549TGAQ+O18qDAvB4yNW05YU6Vb/v1O5GvHBJi+qDbydmGKgnSTIIxMBLZumEIYCauXljQKyZSgaRTv5Y+Db29FopeU+1ySDHI27yJsMCsz+Jj3HfSCd/+BqHJn1fBAJD6PPGKccbggdIG3RyQzVbped8X9dK8RI9ogJQi0Aleh4YO687+EGTuIGTPzY2AsmH7rZsdGqAQLiQSrABGLmWbwys5aJizcDJH2uPSy5Jr5WfxQXgbhLLDmflpjSJr3wZJAZ2DtKTjGTH5mQQCHneYPMMPiG9dkyFD0pIba2UnB8OngxyLHCjqkzExyxNd7BEJqq0gPH9PUib3KmdCCnOGwDSomOVyZ/4JRILaCD54yXz33tpfK08Fuw8F4mJwNGTuIHkj4XvweR6ktkIXpJkEAgFNTY/Iv7AY6RjAQvtuh2LdPLHQwBr5YPwWvlbMsix8A0rERh7OYNd1p7EJJ5K8ofpSYZkEPAdFSZzSswfBLBBX3k4Pyfj/jW8ppfGBKDuQKoUymnmV2FF6Ul8tOnYQPLHOqAzRB+E+0fJ1A2e93fEH4SCuOgY46UxkPyxCmgs3glf77NRAbi3i/iQxZUhfCc8iae6o9mdQSnZN0gGAR95Pdu36u/U+YNgMFCzVTEmFjCV0i91a+VC8JK/JIMcm7xxNfFV//M8C9sauNHC70p4EpcULCEEtJoWrCSDgE+oTfDHocXhARwjHaZzphM5emEi+SPAGFxjySDHpu9cu0uVNTC0iVCJKnW02wdp16qhkz+CEtnakirZriSDgC8bRpUgRoFnCBYDVkC13g0561785I8A38UqM5QMcmzpAZTqvtJC0PcX8KJ3Px/0aScmkLZWhXosHyeDQCzs5g2yfCEWxJP1BlgBkw2VMnzfX6wJwD0huNGZwj4KQaWwr3bCz5RFzUDyxypUS4OBMw9L5myIcd4AcIB0sl4vd66h5I9NoO/CyFp57OJJ9oTgn3rydJWRswuwPNeu3jsLE3iyAa0WdjYkg4DNxdHmvAFge51+yeQtT32SQbD+/fouxBMnj3x5QG0ZU7uDT5mshezQjl015A8XRzFVz/mcycU0KNf6nyFPMvq9Pwnv8k573oPqb0umfJn2bGjnbcDtsJuAf2QBxtxG9B5McyoR81018VJoHRMbfwOfY6LnZ8k4vNZDFAx8rzI6fQh8rVTW0EfJuf0PjxSuEmZ3+rNblNXnb90JhgymtRZ8P/X/XrmcuA0kf3zNAke996pdHjK5TK/XZBAC8GGk2Fvrz+vcQQ0/SBG1XlbzqVpnrgUvqyx7i5Z/I5388S2Cd7Gu3oWah6Tc4sVRaI3Q5XBpXwsia2tXLnjJdQyuJ9ftoneb0wwOiiEp8dMydqfCE36rRSD7PbNunYIrt8scmjBr3PmsCQm1CwAAAAAAAAAAAETL/wswAGqU3A6dlzUCAAAAAElFTkSuQmCC;textShadow=0;imageBackground=#000000;" parent="1" vertex="1">
          <mxGeometry x="589.5" y="302" width="60.67" height="40" as="geometry" />
        </mxCell>
        <mxCell id="vkedUsvM2t2fuHIzKLKo-2" style="edgeStyle=orthogonalEdgeStyle;rounded=0;orthogonalLoop=1;jettySize=auto;html=1;entryX=0;entryY=0.5;entryDx=0;entryDy=0;startArrow=classic;startFill=1;" parent="1" source="AHNvOGjP9P18lFbbEgM--4" target="AHNvOGjP9P18lFbbEgM--1" edge="1">
          <mxGeometry relative="1" as="geometry">
            <mxPoint x="411" y="376" as="sourcePoint" />
            <mxPoint x="490" y="424" as="targetPoint" />
            <Array as="points">
              <mxPoint x="450" y="460" />
              <mxPoint x="450" y="414" />
            </Array>
          </mxGeometry>
        </mxCell>
        <mxCell id="vkedUsvM2t2fuHIzKLKo-3" style="edgeStyle=orthogonalEdgeStyle;rounded=0;orthogonalLoop=1;jettySize=auto;html=1;entryX=1;entryY=0.5;entryDx=0;entryDy=0;startArrow=classic;startFill=1;exitX=0;exitY=0.5;exitDx=0;exitDy=0;" parent="1" source="AHNvOGjP9P18lFbbEgM--5" target="AHNvOGjP9P18lFbbEgM--1" edge="1">
          <mxGeometry relative="1" as="geometry">
            <mxPoint x="409" y="470" as="sourcePoint" />
            <mxPoint x="490" y="424" as="targetPoint" />
            <Array as="points">
              <mxPoint x="560" y="366" />
              <mxPoint x="560" y="414" />
            </Array>
          </mxGeometry>
        </mxCell>
        <mxCell id="vkedUsvM2t2fuHIzKLKo-4" style="edgeStyle=orthogonalEdgeStyle;rounded=0;orthogonalLoop=1;jettySize=auto;html=1;entryX=1;entryY=0.5;entryDx=0;entryDy=0;startArrow=classic;startFill=1;exitX=0;exitY=0.5;exitDx=0;exitDy=0;exitPerimeter=0;" parent="1" source="AHNvOGjP9P18lFbbEgM--6" target="AHNvOGjP9P18lFbbEgM--1" edge="1">
          <mxGeometry relative="1" as="geometry">
            <mxPoint x="610" y="376" as="sourcePoint" />
            <mxPoint x="538" y="424" as="targetPoint" />
          </mxGeometry>
        </mxCell>
        <mxCell id="vkedUsvM2t2fuHIzKLKo-6" value="ts-caldera" style="text;html=1;align=center;verticalAlign=middle;whiteSpace=wrap;rounded=0;" parent="1" vertex="1">
          <mxGeometry x="569.84" y="272" width="100" height="30" as="geometry" />
        </mxCell>
        <mxCell id="vkedUsvM2t2fuHIzKLKo-7" value="win-41sldmuh9vc" style="text;html=1;align=center;verticalAlign=middle;whiteSpace=wrap;rounded=0;" parent="1" vertex="1">
          <mxGeometry x="542" y="488" width="140" height="30" as="geometry" />
        </mxCell>
        <mxCell id="vkedUsvM2t2fuHIzKLKo-8" value="*.ts.net" style="text;html=1;align=center;verticalAlign=middle;whiteSpace=wrap;rounded=0;" parent="1" vertex="1">
          <mxGeometry x="474" y="360" width="60" height="30" as="geometry" />
        </mxCell>
        <mxCell id="vkedUsvM2t2fuHIzKLKo-13" value="" style="sketch=0;pointerEvents=1;shadow=0;dashed=0;html=1;strokeColor=none;labelPosition=center;verticalLabelPosition=bottom;verticalAlign=top;outlineConnect=0;align=center;shape=mxgraph.office.security.lock_protected;fillColor=#DA4026;" parent="1" vertex="1">
          <mxGeometry x="518.62" y="420" width="23.38" height="32" as="geometry" />
        </mxCell>
        <mxCell id="vkedUsvM2t2fuHIzKLKo-14" value="ACL" style="text;html=1;align=center;verticalAlign=middle;whiteSpace=wrap;rounded=0;" parent="1" vertex="1">
          <mxGeometry x="500.31" y="445.4" width="60" height="30" as="geometry" />
        </mxCell>
        <mxCell id="zjRUTvESqjygjcJf4aU8-1" value="" style="shape=image;verticalLabelPosition=bottom;labelBackgroundColor=default;verticalAlign=top;aspect=fixed;imageAspect=0;image=data:image/png,iVBORw0KGgoAAAANSUhEUgAAAgAAAAIACAYAAAD0eNT6AAAACXBIWXMAAFP9AABT/QGevOBQAAAAGXRFWHRTb2Z0d2FyZQB3d3cuaW5rc2NhcGUub3Jnm+48GgAAIABJREFUeJztvVmTXEeanvkhCRJSs6u4VEu9EFXFfemtpNvuuRAuiuT/0E+Q2fyUuVRZt0kayWZGJtNi0yQA7mRxLa4ggUzkBiT2HQnknhm6yIzIWI67vx5xIsL9+PNcMRNfvHAe8vvicY/lHPl3//1/tFrWMh1P7ZHIeld+ZY6n3sdA1hDrqcwJ1PvoyWqpjxrMl9YkJneyhrw+AzlivY8jkfWufO+aWp6fxrSeTlZEvYsjNa3HLJn+7flNJv0LkCMz+/0a07Ge2speiJoG+/VRPRXIH8gaYj2VOYF6HxUTTl9VV6W0JjG5kzXk9RnIEet9tCLrXfnhZ3Xfo+tfTycrot5Fq6b1mCXTv/7n1zT7FyBHZszMkAAxHwnQ8pGA8Ho6WRH1LpAALR8JAOhhpvNPSICWjwRo+UhAeD2drIh6F0iAlo8EAHSY6fkJCdDykQAtHwkIr6eTFVHvAgnQ8pEAADPrFwAzJEDNRwK0fCQgvJ5OVkS9CyRAy0cCACoEwAwJUPORAC0fCQivp5MVUe8CCdDykQAonGoBMEMC1HwkQMtHAsLr6WRF1LtAArR8JAAKxi0AZkiAmo8EaPlIQHg9nayIehdIgJaPBECh+AXADAlQ85EALR8JCK+nkxVR7wIJ0PKRACiQsACYIQFqPhKg5SMB4fV0siLqXSABWj4SAIWhCYAZEqDmIwFaPhIQXk8nK6LeBRKg5SMBUBAzsYMWCRDykQAtHwkIr6eTFVHvAgnQ8pEAKISDEwAkoEMmQwQJqAAJCIMEaPlIABRA10sASECHTIYIElABEhAGCdDykQBoOH3vAUACOmQyRJCACpCAMEiAlo8EQIOpeBMgEtAhkyGCBFSABIRBArR8JAAaiuNTAEhAh0yGCBJQARIQBgnQ8pEAaCCejwEiAR0yGSJIQAVIQBgkQMtHAqBhzMQMNi9IgJaPBGj5SEB4PZ2siHoXSICWjwRAg9g/AUACtPxMhggSUAESEAYJ0PKRAGgIhy8BIAFafiZDBAmoAAkIgwRo+UgANIDe9wAgAVp+JkMECagACQiDBGj5SABkzuCbAJEALT+TIYIEVIAEhEECtHwkADKm+l4ASICWn8kQQQIqQALCIAFaPhIAmeK+FwASoOVnMkSQgAqQgDBIgJaPBECG+O8FgARo+ZkMESSgAiQgDBKg5SMBkBnhewEgAVp+JkMECagACQiDBGj5SABkhHYvACRAy89kiCABFSABYZAALR8JgEzQ7wWABGj5mQwRJKACJCAMEqDlIwGQAXH3AkACtPxMhggSUAESEAYJ0PKRAEgcjwCYIQGBeh+ZDBEkoAIkIAwSoOUjAZAwAQEwQwIC9T4yGSJIQAVIQBgkQMtHAiBRBAEwQwIC9T4yGSJIQAVIQBgkQMtHAiBBRAEwQwIC9T4yGSJIQAVIQBgkQMtHAiAxIgTADAkI1PvIZIggARUgAWGQAC0fCYCEqL4XgBckwFvvI5MhggRUgASEQQK0fCQAEmFmGoPNCxKg5SMBWj4SEF5PJyui3gUSoOUjAZAA+y8BIAHhfCRAy0cCtHwkQMtPpH+RAGgih+8BQALC+UiAlo8EaPlIgJafSP8iAdA0et8EiASE85EALR8J0PKRAC0/kf5FAqBJDH4KAAkI5yMBWj4SoOUjAVp+Iv2LBEBTqP4YIBIQzkcCtHwkQMtHArT8RPoXCYAm4P4eACQgnI8EaPlIgJaPBGj5ifQvEgC54/8iICQgnI8EaPlIgJaPBGj5ifQvEgA5E/4mQCQgnI8EaPlIgJaPBGj5ifQvEgC5on0VMBIQzkcCtHwkQMtHArT8RPoXCYAc0e8FgASE85EALR8J0PKRAC0/kf5FAiA34u4FgASE85EALR8J0PKRAC0/kf5FAiAnDk4A0h5sXpAALR8J0PKRgPB6OlkR9S6QAC0fCYAx0PUSQNqDzQsSoOUjAVo+EhBeTycrot4FEqDlIwFQM33vAUh7sHlBArR8JEDLRwLC6+lkRdS7QAK0fCQAaqTiTYBpDzYvSICWjwRo+UhAeD2drIh6F0iAlo8EQE04PgWQ9mDzggRo+UiAlo8EhNfTyYqod4EEaPlIANSA52OAaQ82L0iAlo8EaPlIQHg9nayIehdIgJaPBMCIBL4HIO3B5gUJ0PKRAC0fCQivp5MVUe8CCdDykQAYgZncB5sXJEDLRwK0/Mx7BQmIqHflIwHQIPZPADIfbF6QAC0fCdDyM+8VJCCi3pWPBEBDOHwJIPPB5gUJ0PKRAC0/815BAiLqXflIADSA3vcAZD7YvCABWj4SoOVn3itIQES9Kx8JgMwZvBdA5oPNCxKg5SMBWn7mvYIERNS78pEAyJjqewFkPti8IAFaPhKg5WfeK0hARL0rHwmATHHfCyDzweYFCdDykQAtP/NeQQIi6l35SABkiP9eAJkPNi9IgJaPBGj5mfcKEhBR78pHAiAzwvcCyHyweUECtHwkQMvPvFeQgIh6Vz4SABmh3Qsg88HmBQnQ8pEALT/zXkECIupd+UgAZIJ+L4DMB5sXJEDLRwK0/Mx7BQmIqHflIwGQAXH3Ash8sHlBArR8JEDLz7xXkICIelc+EgCJExAAs6YNNi9IgJaPBGj5mfcKEhBR78pHAiBhBAEwa9pg84IEaPlIgJafea8gARH1rnwkABJFFACzpg02L0iAlo8EaPmZ9woSEFHvykcCIEEiBMCsaYPNCxKg5SMBWn7mvYIERNS78pEASIzBewEEadZg84IEaPlIgJafea8gARH1rnwkABKi+l4AQZo12LwgAVo+EqDlZ94rSEBEvSsfCYBEmGGwCSABWj4SoOVn3itIQES9Kx8JgATYPwFgsIVBArR8JEDLz7xXkICIelc+EgBT5vBNgAy2MEiAlo8EaPmZ9woSEFHvykcCYIr0fgqAwRYGCdDykQAtP/NeQQIi6l35SABMicGPATLYwiABWj4SoOVn3itIQES9Kx8JgClQ/T0ADLYwSICWjwRo+Zn3ChIQUe/KRwJgwri/CIjBFgYJ0PKRAC0/815BAiLqXflIAEwQ/zcBMtjCIAFaPhKg5WfeK0hARL0rHwmACRH+KmAGWxgkQMtHArT8zHsFCYiod+UjATABtHsBMNjCIAFaPhKg5WfeK0hARL0rHwmAMaPfC4DBFgYJ0PKRAC0/815BAiLqXflIAIyRuHsBMNjCIAFaPhKg5Y+xV5594k/i1xNcExJwmBVZ78pHAmBMdL0E0JzBpoEEeOt9ZDJEkIAKDnrl+M+ftn/7r/6NHXvk0fj1BNeEBBxmRda78pEAGAN97wHIf7DFgQR4631kMkSQgApaZm8+/xt7/NFj9vfHXxpuPcE1IQGHWZH1rnwkAGqm4k2AeQ82JCCQjwRo+Q2WgOM/f9pe+5O/MDOzE8/+pXgK4MhHArT8RPoXCYBuHJ8CyHOwHWYhAd58JEDLb6gEvPnC33aq4k4BHPlIgJafSP8iAdDG8zHA/AZbbxYS4M1HArT8hklA9+6/TdwpgCMfCdDyE+lfJADMgt8DkM9gGwAJCOcjAVp+gySge/ffZv8U4OXR1hNcExJwmBVZ78pHAmBEhC8CymOwVYIEhPORAC2/ARJQtftvc+LZ1+zYI4+Ntp7gmpCAw6zIelc+EgAjMNOEweYFCQjnIwFafua9UrX7b3P4XoDJ9goSEFHvykcCYEj2TwAyH2xBkIBwPhKg5WfaK77df5v9U4BHR19PcE1IwGFWZL0rHwmAITh8CSDTwSaDBITzkQAtP8Ne8e3+23ROAabQK0hARL0rHwmASGZyH2xIwGHWSGtp1yMBWn5GvaLs/tucePY1O3b0USRAAQnQ8pGAZBm8F0BGg81Z7wMJCOcjAVp+Jr3y5gt/I6f2fC8AEhAGCdDykYAkmTm8fPkNNm+9DyQgnI8EaPmJ90rM7r9N5xSgk4UEeEECtHwkIDlmzLovXz6DTar3gQSE85EALT/hXonZ/bcZ+HZAJCAMEqDlIwFJ0XkTIBKgggR4631kMkSaIgHHfxa/+2/TcwrQWRMS4AUJ0PKRgGTo+SIgJEAFCfDW+8hkiDRBAobZ/bepvEcAEhAGCdDykYAkGPgmQCRABQnw1vvIZIjkLAHHf/60vfYvhtv9txk4BeisCQnwggRo+UjA1Kn8KmAkQAUJ8Nb7yGSI5CoBo+z+2zjvFIgEhEECtHwkYKo47wWABKggAd56H5kMkdwkoI7df5vKU4DOmpAAL0iAlo8ETA3vzYCQABUkwFvvI5MhkpMEvPnCX9c2+pynAJ01IQFekAAtHwmYCsG7ASIBKkiAt95HJkMkBwmoc/ffxnkK0FkTEuAFCdDykYCJI9wOGAnQQQK89T4yGSKpS0Cdu/823lOAzpqQAC9IgJaPBEyUGfXCIAEqSIC33kcmQyRVCRjH7r+N9xSgsyYkwAsSoOUjARNj8F4AHpAAFSTAW+8jkyGSogSMY/ffJngK0FkTEuAFCdDykYCJ0PUSABLgBAkI5yMBWv6YemWcu/82wVOAzpqQAC9IgJaPBIydmWEuDBKgggR4631kMkRSkYBx7v7bSKcAZkiAAhKg5SMBY2X/BAAJ0EACwvlIgJZfY68c/9lTY9/9t5FOAcyQAAUkQMtHAsbG4UsASIAGEhDORwK0/Jp65c0Xx7/7byOfApghAQpIgJaPBIyF3o8BIgEaSEA4HwnQ8kfsleM/n9zuv418CmCGBCggAVo+ElA7g98DgARoIAHhfCRAyx+hVya5+28TdQpghgQoIAFaPhJQK9VfBIQEaCAB4XwkQMsfolemsftvs38K8Jj+ACQgDBKg5SMBteH+JkAkQAMJCOcjAVp+ZK9MY/ffZv8U4EVLvVeQgIh6Vz4S0Fj8XwWMBGggAeF8JEDLF3tlmrv/NofvBUi7V5CAiHpXPhLQSML3AkACNJCAcD4SoOULa3rzxb+Z+pg6PAUwS71XkICIelc+EtA4tHsBIAEaSEA4HwnQ8j1r2t/9/7mcOk56PxGQdq8gARH1rnwkoFHo9wJAAjSQgHA+EqDlO9Y0zdf+++k9BTBLvVeQgIh6Vz4S0Bji7gWABGggAeF8JEDL71tTSrv/NoPfC5B2ryABEfWufCSgEfS9BwAJiKr3gQSE85EALb8rJ6Xdf5vBUwCz1HsFCYiod+UjAdlT8SZAJCCq3gcSEM5HArT8Vpq7/zbV3w6Ydq8gARH1rnwkIGscnwJAAqLqfSAB4XwkQMpPcfffpvoUwCz1XkECIupd+UhAtng+BogERNX7QALC+UiANz/l3X8b9z0C0u4VJCCi3pWPBGRJ4HsAkICoeh9IQDgfCXDy5kvp7v7buE8BzFLvFSQgot6VjwRkR/iLgJCAuHofSEA4HwkYIIfdfxv/nQLT7hUkIKLelY8EZIUgAGZIQGS9DyQgnI8E9PDmS3+VzajxnwKYpd4rSEBEvSsfCciGmWlfGCRABQnw1vvIZIhUPSqn3X8b/ymAWeq9ggRE1LvykYAs2D8BQAK0fCRAy05kiPSQyRDpf1ROu/82jz96zP7+Gd8pgFnqvYIERNS78pGA5JlJ5cIgASpIgLfeRyZDpP2oHHf/bU4895ode8R3CmCWeq8gARH1rnwkIGl67wWABGj5SICWncgQ6SGTIXLE8tz9t+m8FyDzXkECIupd+UhAsgzeCwAJ0PIzH2xekAAtf4y9kvPuv82J5w7eC5B5ryABEfWufCQgSarvBYAEaPmZDzYvSICWP6ZeyXn336bnEwGZ9woSEFHvykcCksN9LwAkQMvPfLB5QQK0/Jp75fjPn7JXM9/9t+mcAphl3ytIQES9Kx8JSAr/vQCQAC0/88HmBQnQ8mvslTdf+ssMRofGwPcCZN4rSEBEvSsfCUiG8L0AkAAtP/PB5gUJ0PJr6JXjTzRn99+m5xTALPteQQIi6l35SEASaPcCQAK0/MwHmxckQMsfsVeatPtvs38K8FLvLzPvFSQgot6VjwRMHf1eAEiAlp/5YPOCBGj5Q/ZKE3f/bU489+rgtwNm3itIQES9Kx8JmCpx9wJAArT8zAebFyRAyx+iV5q4+29zeArQrF5BAiLqXflIwNQQBcAslQuDBKggAd56H1MYIk3e/bfZPwU4ak3rFSQgot6VjwRMhQgBMEvlwiABKkiAt97HhIdIEz73H6L3vQDN6hUkIKLelY8ETJyZXC8MEqCCBHjrfUxoiOzv/v8sMjtPDk8BzJrWK0hARL0rHwmYKL33ApBJ48IgASpIgLfexwSGSJNf++9n8BMBzeoVJCCi3pWPBEyMwXsByKRxYZAAFSTAW+9jjEOkpN1/m95TALOm9QoSEFHvykcCJkL1vQBk0rgwSIAKEuCt9zGmIVLS7r9N5fcCNKxXkICIelc+EjB2ZppyYZAAFSTAW++j5l4pcfffZvAUwKxpvYIERNS78pGAsTIzuIhhFpLGhUECVJAAb72PGnulxN1/m+pTALOm9QoSEFHvykcCxsbhSwANuTBIgAoS4K33UUOvlLz7b1N9CmDWtF5BAiLqXflIwFjofQ9AQy4MEqCCBHjrfYzYKyXv/tu4TwHMmtYrSEBEvSsfCaidwS8CasiFQQJUkABvvY8he+X4E0/aq/+y7N1/G/cpgFnTegUJiKh35SMBtVL9TYANuTBIgAoS4K33MUSvsPs/xH8KYNa0XkECIupd+UhAbbi/CrghFwYJUEECvPU+InqF3f8g/lMAs6b1ChIQUe/KRwJqwX8vgIZcGCRABQnw1vsQe4Xd/yDhUwCzpvUKEhBR78pHAkYmfC+AhlwYJEAFCfDW+wj0Crt/N+FTALOm9QoSEFHvykcCRkK7F0BDLgwSoIIEeOt9eHqF3b8b7RTArGm9ggRE1LvykYCh0e8F0JALgwSoIAHeeh8VvcLuP4x2CmDWtF5BAiLqXflIwFDE3QugIRcGCVBBArz1Pvqy2P2H0U8BzJrWK0hARL0rHwmIpuJNgEjAyOvpyUICnBQiAez+dfRTALOm9QoSEFHvykcConB8CgAJGHk9PVlIgJMCJODNl15j9y8Sdwpg1rReQQIi6l35SICM52OASMDI6+nJQgKcNFgC2P3HE3cKYNa0XkECIupd+UiAhP97AJCA0dfTk4UEOGmoBLz5Mrv/WOJPAcya1itIQES9Kx8JCBIQACG4IRcGCVBBArz1XbD7H579U4BHIx/VrF5BAiLqXflIgBdBAITghlwYJEAFCfDWH8Duf3j2TwFetNJ7BQmIqHflIwFORAEQghtyYZAAFSTAV8/uf3ROPNt+L0DZvYIERNS78pGASmbqfsdzVL0rHwnQ8jMfbF4ylwB2/6Pz+GPtUwCz0nsFCYiod+UjAQPM1HFh3IvQFzJQjwRo+ZkPNi+ZSgC7//o48eyrduyR9icCyu4VJCCi3pWPBPRweC8AJMCTigRE5xcsAW++/Cq7/5p4/LFj9ve/fJFecT+6/vV0siLqXSABWv6Unut67wWABHhSkYDo/AIlgN1//XTeC0CvuB5d/3o6WRH1LpAALX8Kz3WD9wJAAjypSEB0fmESwO6/fjqnAGb0ivvR9a+nkxVR7wIJ0PIn/FxXfS8AJMCTigRE5xciAez+x8fhJwKMXnE/uv71dLIi6l0gAVr+BJ/r3PcCQAI8qUhAdH4BEsDuf3z0nAKY0SvuR9e/nk5WRL0LJEDLn9Bznf9eAEiAJxUJiM5vsAQc/zm7/3HTcwpgRq+4H13/ejpZEfUukAAtfwLPdeF7ASABnlQkIDq/oRLw5it87n/cDJwCmNEr7kfXv55OVkS9CyRAyx/zc512LwAkwJOKBETnN0wC9l/7/9OIdcCwDJwCmNEr7kfXv55OVkS9CyRAyx/jc51+LwAkwJOKBETnN0gC3nyF1/4nReUpgBm94n50/evpZEXUu0ACtPwxPdfF3QsACfCkIgHR+Q2QAHb/k6fyFMCMXnE/uv71dLIi6l0gAVr+GJ7rIgTgIBgJ8KQiAdH5mUsAu//J4zwFMKNX3I+ufz2drIh6F0iAll/zc93MNC5M/yKi6l35SICWn/lg8zJhCWD3Pz2cpwBm9Ir70fWvp5MVUe8CCdDya3yuO7wXQOxCkABPKhIQnZ+hBLD7nx7eUwAzesX96PrX08mKqHeBBGj5NT3X9d4LIHYhSIAnFQmIzs9IAtj9Tx/vKYAZveJ+dP3r6WRF1LtAArT8Gp7rBu8FELsQJMCTigRE52ciAez+p0/wFMCMXnE/uv71dLIi6l0gAVr+iM911fcCiF0IEuBJRQKi8xOXAHb/6RA8BTCjV9yPrn89nayIehdIgJY/wnPdTCoXpocELswASIBGARLw5iuvsPtPBOkUwIxecT+6/vV0siLqXSABWv6Qz3Uz7gcjAQMgARoNloD97/xn958S0imAGb3ifnT96+lkRdS7QAK0/CGe6w5fAkjkwvSABEj5DDaBmiSA3X967J8CvKQV0yuuR9e/nk5WRL0LJEDLj3yu630PQCIXpgckQMpnsAmMKAHHn3jSXv1Tdv8pcuLZV+zY0Ue1YnrF9ej619PJiqh3gQRo+RHPdYNvAkzkwvSABEj5DDaBESSA3X+6HL4XgF5BAsT8RJ7rpikB1V8FnMiF6QEJkPIZbAJDSAC7//TZPwU4avSKIQFqfiLPddOSAPe9ABK5MD0gAVI+g00gUgLY/adP7ycC6BUkQMxP5LluGhLgvxdAIhemByRAymewCYgScPyJJ9j9Z8LhKYAZvWJIgJqfyHPdpCUgfC+ARC5MD0iAlM9gExAkgN1/Pgx+LwC9ggSI+Yk8101SArR7ASRyYXpAAqR8BpuARwLY/edH7ymAGb1iSICan8hz3aQkQL8XQCIXpgckQMpnsAk4JIDdf35UfzsgvYIEiPmJPNdNQgJmAn9tL4lcmB6QACmfwSbQJwHs/vNl8BTAjF4xJEDNT+S5btwSMCP8tb0kcmF6QAKkfAabQJcEsPvPF/c9AugVJEDMT+S5bpwSMNP3ay04kQvTAxIg5TPYBFpmv+Rz/9lTfQpgRq8YEqDmJ/JcNy4JmKn4tRacyIXpAQmQ8hlsYd5g9589/jsF0itIgJifyHPdOCRg4IuAkAAkICo/88FWxfEnn7BX//RfRq4DUsR9CmBGrxgSoOYn8lxXtwRUfhMgEoAEROVnPtj6YfffHPynAGb0iiEBan4iz3V1SoDzq4CRACQgKj/zwdaG3X/z8J8CmNErhgSo+Yk819UlATO+hSABSEBUfuaDzYzdfxMJnwKY0SuGBKj5iTzX1SEBM6GFIAFIQFR+xoPtl08+aa8VsvuParEG8G+efcUee8R3CmBGrxgSoOYn8lw3qgQc3gsACQjnIwFafqaD7fVXXo78e/Ll1NxZe7C1Oe1lTIw/fuyY/R/BUwAzesWQADU/kee6USSg914ASEA4HwnQ8jMbbMeffLKY1/7Xtrfs3YU5e3/h/LSXMlFOPPeKHQueApjRK4YEqPmJPNcNKwGD9wJAAsL5SICWn9Fge+OVl6PTc+WDxXnb3Nm1j5bmizoF6LwXgF7R8pEALT+R57phJKDiUwBIgJSPBGj5GQy2kt75v7GzbR8tLZiZ2dbunn2wWOApwNGj9IqajwRo+Yk818VKgONjgEiAlI8EaPmJD7bSdv/r29udnz9aWizzFMCMXlHzkQAtP5HnuhgJcH4PABIg5iMBWn6ig62s3f+Ofbi40PO7zZ0d+2Bxfkormg6dUwAzekXNRwK0/ESe61QJ8AhAeCFIABIQlZ/gYCtp9//x0oKtbW8N/P6jpQV7uDX4+6Yy8L0A9IqWjwRo+Yk81ykSEBCA8EKQACQgKj+hwVbS7n9rd9e509/c2bEPizwFePTwF/SKlo8EaPmJPNeFJEAQgPBCkAAkICo/kcH2xqtl7f59r/V/uDRfeTrQVPZPAV4wemWIfCRAy0/kuc4nAaIAhBeCBCABUflTHmwlfe5/Z2/PPljw7/Cr3h/QdA7fC0CvROcjAVp+Is91LgmIEIDwQpAAJCAqf4qD7Y1XXypm9//J0qLd39wMXu/+Twg0ncNTADN6ZYh8JEDLT+S5rkoCZupeCBKABETlT2GwlfTa/87enr3X+cY/f69s7Gzbh0slvheg/e2A9Ep0PhKg5SfyXNcvATOuwlEWggQgAVH5Ex5sJe3+P72wZPc2Nrp+4++V9xdKPgUwo1eGyEcCtPxEnuu6fzPjKxxlIUgAEhCVP6HBVtLuf7e1Z+/NV+3o3b3CKYAZvTJEPhKg5SfyXNf+zeC9AGpcCBKABETlT2CwlbT7/+zCBbuzvub4U3evcApgRq8MkY8EaPmJPNcdMde9AGpcCBKABETlj3Gwlbb7f3d+LlBV3SsbO9v20XKpnwjoptxe0UAC/KT/XOe+F0CNC0ECkICo/DENtpJ2/19evGi311y7/26qe+X9hfOcAphZqb2igwT4Sfu5bqa2C4MEaPlIgJZf82Ar6XP/e62WvRPc/Xcz2Cvr29v2yfJiretKnepTALPSegUJCNAgCZhxL6L+hSABSEBUfo2D7Y1Xytn9f3VpxW4+VHb/3Qz2yvuL521zZ6e2daWO+xTArKReQQIEGiIBhy8BIAFaPhIg5ac02I4/+YS9+mf/InIdebLXatk759u7/9F65eHWln20xHsBDml+r/RmIQFeGiABve8BQAK0fCRAyk9lsJX02v83ly/Z9QcPun4zWq9wCtBPs3tlMAsJ8JK5BAy+CRAJ0PKRACl/2oOtpN1/q9Wy03NVr/0P3ysPt7bsY94L0Ecze6USJCBMxhJQ/SkAJEDLRwKk/GkOtpJ2/99euWJXV1dr75X3FuY4BRigeb3iBAkIk6kEuO8FgARo+UiAlD+NwVbU7t/MTs3N9v5igOF65eHWln1ygVOAQZrTK0GQgDAZSoD/XgBIgJaPBEj5kx5sJe3+f7hyxa7cv9/7yxp75d15TgGqaUYqPzTLAAAgAElEQVSvSCABYTKTgPC9AJAALR8JkPInNdhK2v2bmZ0+7/jcf0298nBzy35/YSnycXmjnQKY5d4rSEB3VkS9i4wkQLsXABKg5SMBUv4kBltJu/8z167Zxbv33AU19co752c5BXCSb69E5yMBYTKRAP1eAEiAlo8ESPnjHGzHn/x5Ubv/U7Pt1/7H2ysPt7bt0wJPAf6ZdApglmOveOt9IAFhMpCAuHsBIAFaPhIg5Y9rsJW0+z97/bpduHu36zfj7ZV358/b1u5u1GNy5vHHjtnf/fKFiKuUV68E630gAWESlwCHAHiCkQAtHwmQ8usebMXt/mM/9z9ir6xubhZ5CnDs6FEkoAokIEzCEuARAE8wEqDlIwFSfp2DraTd/+yNG7Z4+7bjT8fXK++cn7Pt4k4BXjSzmKuUfq9E1ftAAsIkKgEBAfAEIwFaPhIg5dcx2Erb/Z+s3P13M55e2T8FWJZqm8KJ5162Y0cfNTMkoBIkIEyCEiAIgCcYCdDykQApf9TB9sZr5ez+52/dsoVbt4TK8fRKmacAL1j7+iABFSABYRKTAFEAPMFIgJaPBEj5ww620j73f3I2tPvvpv5eub+5YZ9dLPEU4KghAR6QgDAJSUCEAHiCkQAtHwmQ8ocZbG+89mIxu//lO3fs/I2bdiTq37j+Xjk9V+opgBkS4AEJCJOIBMzUthAkQMtHAqT8mMFW2mv/b587+Nx/y6YqAfc3N+zzixci/v78OTwFMEMCPCABYRKQgJlaF4IEaPlIgJSvDraSdv8rd+/Z7PUbh7+YsgScmpu1nb29iL8/b3pPAcyQAA9IQJgpS8DhSwBIwEjric5HAqT80GArbff/1rlzg5d3ihKwfwqwHPF358+J5162Y490fzsgEuAECQgzRQnofQ8AEjDSeqLzkQAp3zfYStr9X7p3z85eu179h1OUgNPn58o7BfjVC5W9ggRUgASEmZIEDL4JEAkYaT3R+UiAlF812Erb/Z88N+e/pFOSgLvr6/ZFqe8FQAI0kIAwU5CA6k8BIAEjrSc6HwmQ8vsHW0m7/6urq3bm2rVw4ZQk4PT5Wdst8RTADAlQQQLCTFgC3B8DRAJGWk90PhIg5bezSvvc/9vn5qzVEv/jTkEC7qyv2xcrhZ4CmCEBKkhAmAlKgP97AJCAkdYTnY8ESPnWMnvjtZg7tOXNtdUH9v2VqxY7aCctAafmCj4FMEMCVJCAMBOSgPAXASEBI60nOh8JCFaU9tr/qdnu3X+6EnBnfd2+XLkY8fflT+/3AhgSoIIEhJmABGjfBIgEjLSe6HwkwPunb/xlObv/mw8f2reXr/T9Nl0JOFn6KYAZEqCCBIQZswToXwWMBIy0nuh8JKDyt6Xt/k+em7O9ytf+05SAO+tr9tWllYi/K38GTgHMkAAVJCDMGCUg7l4ASMBI64nORwIGflPS7v/WwzX7euWypyJNCXh79pzttgo/BTBDAlSQgDBjkoCZqS0ECdDykYDOP5W2+z89e35/9x8x2LxMSALurK/ZVyucApgZEqCCBIQZgwTMTHUhSICWjwSYWVm7/7vr6/bVyqXDX2QmAafmZh0vXTQT5ymAGRKgggSEqVkCZqTCcS4ECdDyC5eA0j73f2p2fvDNdBlJwK21h7wXoBskQAMJCFOjBPS9BwAJ6IAEaPkTkoCydv8b9sWFFRt1sHmZgAScnD3HKUA3SIAGEhCmpufeijcBIgEdkAAtf8wSsP/a/59IuU3g3bnu3X++EnBrbc2+LvEU4BHHKYAZEqCCBISp4bnX8SkAJKADEqDlj1ECStr939/YtM8v9D9p5isBb/NegEGQAA0kIMyIz72ejwEiAR2QAC1/DBJQ4u5/e3e34k/ylICbDx/aN5cvVdc2lBPPB04BzJAAFSQgzAjPvTO1DZERF9KbE1nvy0cCwvkJS0BJu//VzU37dNn3Vbp5SsBbvBegGiRAAwkIM+Rz74x/EZNbyGBOZL0vHwkI5ycoAaXt/t8/v+jY/XeTnwSUewrwaLgQCdBAAsIM8dx7+BIAEqDlIwFafg0SUNLuf21ry36/tCxW5ycBp+YibmfcAPZPAZ63YXsFCagACQgT+dzb+x4AJEDLRwK0/BEk4PhTTxS1+3/v/KJt7oR2/93kJQHXHqzaN1d8X2vcPA7fC4AERNX7QALCRDz3Dr4JEAnQ8pEALX9ICXjjL58vaPe/bR8vXLBJDzYvY5CAk7OzhZ4CmCEBkfU+kIAw4nNv9b0AkAAtHwnQ8iMl4PhTZb32/+H8km3u7ExlsHmpWQKuPVi1b6/039q42fR+IgAJiKr3gQSEEZ573fcCQAK0fCRAy4+QgNcL2v1vbO/YRwvLh79ouAS8PXeu4FMAMyQgst4HEhAm8NzrvxcAEqDlIwFaviABpe3+P5hfsvXt7d5fNlgCrt1fte+ulnwKYIYERNb7QALCeJ57w/cCQAK0fCRAyw9IQFG7/50d+2hhqfoPGywBb58r/RTADAmIrPeBBIRxPPdq9wJAArR8JEDLd0hAabv/jxeWbW1r213QUAm4urpq31+9GpGTP9XfDogERNX7QALCVDz36vcCQAK0fCRAy68YbCXt/rd2d+3D+aVwYUMl4K1zZzkFMDMkILLeBxIQpu+5N+5eAEiAlo8EaPldWeXt/i/Yg80trbiBEnB1ddV+uMYpwD5IQFS9DyQgTNdzr0cAHMFIgJaPBGj5B1kl7f53dvcOdv9pDzYvNUjAyXOzcf97Z477FMAMCYis94EEhDl47g0IgCMYCdDykQAp//iTPytq9//J0gW7v7F58FPag83LiBJw6f49O8N7AbpAAqLqfSABYVpHFAFwBCMBWj4SEMwvbff//txS32/THmxeRpSAt2fPcQrQAxIQVe8DCQgiCoAjGAnQ8pEAZ/7xp35mr/55Obv/T5cv2r2NjYo/SXuweRlBAi7du2c/cgrQBxIQVe8DCfASIQCOYCRAy0cCKvNL2v3v7rXs/fNLnoq0B5uXESTgLU4BKkACoup9IAFOqu8FELsQJEDLRwJ68kvb/X++vGJ3Hq4HqtIebF6GlIBL9+7ZT9euRTwuf8KnAGZIQGS9DySgkpnkhogZEjDieqLzpyQBpe3+351d2P8h88HmZUgJeOvcWU4BKkECoup9IAEDzNS6ECRAy0cC9j/3X9Du/8sLl+z2WtfuP/PB5mUICVi5d8/OXucUoBokIKreBxLQw+F7AFIbImZIwIjric6foASUtPvfa7Xs3blFa9pg8zKEBPzTWd4L4AYJiKr3gQR06H0TYGpDxAwJGHE90fkTkID91/5/EZmbL3+4eMVuPlg7+KlZg81LpASs3Ltn565f1/MbwInnX7ZjM8opgBkSEFnvAwkws6pPAaQ2RMyQgBHXE50/Zgkobfd/+txC32+bNdi8RErA27OzenYDePyxY/Z3v35+pE/SDIAEaCABjo8BpjZEzJCAEdcTnT8mCSht9//NylW78eBhxZ80a7B5iZCA5Tt37NyNG3p2Azjx/Cv77wVAArT8zHslJQlwfw9AakPEDAkYcT3R+WOQgJJ2/61Wy96Z7d/9d9OsweYlQgLeOndOz20Ajz/2mP3dr1/Y/wEJ0PIz75VUJMD/RUCpDREzJGDE9UTn1ygBpe3+v7t8za7efxCoatZg8yJKwPKdOzZb3CnAy3bskUf3f0ACtPzMeyUFCQh/E2BqQ8QMCRhxPdH5NUlAUbt/Mzs18Nq/i2YNNi+iBJR5CvC8uV46c4MERNX7KFACtK8CTm2ImCEBI64nOn9ECdj/3H85u/8fLl+zK/dWIx7RrMHmRZCApTt3bO7mTT2zARx+LwASEJWfea9MUwL0ewGkNkTMkIAR1xOdP4IEvP5XzxWz+zcze2d20UofbF4ECfinYk8BzJCAyPzMe2VaEhB3L4DUhogZEjDieqLzh5CA0l77//HKDbt4+/7BT2UPNi8BCVi6fdvOF3sKYIYEROZn3ivTkIAZ4a8ez0KQAC2/ARJQ2u7/1Nn+7/wve7B5CUhA2acAZkhAZH7mvTJpCZgJFo5zIUiAlp+xBJS2+z977aZduHPv8BcMtjAeCVi8fdvmb93SsxrA4D0CkICo/Mx7ZZISMCMVjnMhSICWn6kElLb7P3224p3/DLYwHgko9xMB3SABUfmZ98qkJKDiTYBpX5ggSMBI64nO90hAabv/ueu3bPHW3eo/ZLCFcUjA/K1bnAKYGRIQmZ95r0xCAmaqI9K+MEGQgJHWE53vkIDSdv8nq3b/3TDYwjgkoLx7BFSdApghAZH5mffKuCVgxh2R9oUJggSMtJ7o/L6s0j73P3/jji3cvBMuZLCFqZCA8zdv2gKnAAcgAVH5mffKOCVgZvBX8l9d60J6cyLqfSABI60nOr8r6/W/erbA3T+DbZwScHJuTn98A3CfApghAZH5mffKuCRgpnsRSIAnHwnQ8lvlvfa/fPuenb9x++AnBtu4JGD2xg1buH3b84Dm4T4FMEMCIvMz75VxSMBM/yKQAE8+EiDll7b7f/un+b7fMNjGJQEneS9AH0hAVH7mvVK3BBx+CgAJ0PKRAG9+abv/lbv3bfZa1WvTDLZxSMDsjRu2yClAH0hAVH7mvVKnBPR+DBAJ0PKRAGf+639d1u7/rR/nPZeMwTYOCeAUoAokICo/816pSwIG7wWABGj5SMBAfmm7/0t3V+3s1dB31TPY6paAc5wCOEACovIz75U6JKD6XgBIgJaPBPTkl7b7P/nTgrUYbFp+zRJwik8EOEACovIz75VRJcB9LwAkQMtHAsysvM/9X73/0M5cubH/A4NNy69RAs5dv2EX7gjfu9AgtFMAMyQgMj/zXhlFAvz3AkACtHwkwF7/618Xtft/+8f53t0/g03Lr1ECTs5yCuAGCYjKz7xXhpWA8L0AkAAtv2AJKO21/+urD+2Hywe7fwZbfH5N/fvTtet24a7j3gsNRT8FMEMCIvMz75VhJKBCACoKkQAtv1AJKG33f+qnRWu1Wl3/zgy26Pya+vfUOU4B/CABUfmZ90qsBDgEoCIKCdDyC5OA0nb/Nx+s2bcr1zo/IwEq4+nfH69ds4ucAgRAAqLyM++VGAnwCEBFFBKg5RckASXu/vf63vqPBKiMp39P8V4AASQgKj/zXlElICAAFVFIgJZfgASUtvu/9XDdvr54tfLPkACV+vv3zNVSTwEejXwUEhCVn3mvKBIgCEBFFBKg5TdcAkrb/Z8+O7j77wYJUKm/f0/Pno9cQ97snwI8Z0NfeyRAy8+8V0ISIApARRQSoOU3VAJK2/3fXduwP1yo3v13gwSo1Nu/Z65eLfQU4KghAQ7oFdejO0QIQEUUEqDlN1ACSvvWv9Nnl2x3T5uYSIBKff3bMrPTc6WeApghAQ7oFdejzazqXgCxC0ECtPwGScDxp/7YXv2Lp4N1TeHu2oZ9sXzl4CftvxcSoFJf/565ctUu378f+ffnTe8nApCASugV16Md9wKIXQgSoOU3RAJK2/2/e27Zdnf3un6DBDiZYv+2rNTvBXiu6zdIQCX0SuWjZ8ZxYZAAT37mElDa7v/+xqZ9sXR5/4eKwRYCCVCpp3+/v3LFrhR9CmCGBDigVwZ+mul9MBLgBQkobvf/3rll2+7e/SMBGlPq35YV+r0Av3qu77dIQCX0Ss9Ph28CRAI0CpaA0nb/qxtb9unC5cE/QAI0ptS/312+Ylfur0b+vXlz4oWqbwdEAiqhVzo/9X4KAAnQKFQCStv9vz+7bNu7u9V/iARoTKF/9z8RUOgpwMB1QgIqoVfMrOpjgEiARmEScPypnxW1+1/b2rZPFy75i5AAjSn077elngIcPYoE0Ctyr1R/DwASoFGQBJT2rX/vzV6wzZ29cCESoDHh/m21WuWeApghAfSK1CvuLwJCAjQKkIDSXvtf29q2T86vHPw03GALgQSoDN+/316+YldXCz0FMEMC6JVgr/i/CRAJ0Gi4BJS2+/9w7qJt7nS/9o8ERNX7mGD/7p8CFPjtgN2fCEACtNhCeyX8VcBIgEZDJeD402Xt/je2d+zjzu6/GyQgqt7HBPv320uX7fqDB5F/V970nAKYIQH0inNN2r0AkACNBkpAibv/9e0dx58iAVH1PibUv3utlp3mewGQAHqlck36vQCQAI0GSUCJu/+PKnf/3SABUfU+JtS/X1+6bDdKPwUwQwLolYE1xd0LAAnQaIgElLb7//j8iq1tbQuVSEBUvY8J9O9ey+zUbOHvBWiDBGixhfTKjLfQuYgaFoIEaPlTkoDjT5f1uf+tnV37cO7i2Aebnspgi873rIlTgC6QAC22gF6ZCRY6F1HDQpAALX8KEvD6X/+qqN3/J/OX7OHmwWv/SICWn/Bg62ev1bLTc/OR+XnjPAUwQwLoFbNW5ZsAkYDSJaC01/53dvfsw9mLBz9NZrDpqQy26HzHmv6wcsluPHgYmZ83zlMAMySAXnF9CgAJKFkCStz939/Y6voNEhCVn+Bgq1rTXqtl75znFKAHJECLbWiveD4GiASUKAEl7v4/6Oz+u0ECovITG2yHOb18dXHFbj7kFKAHJECLbWCvBL4HAAkoTQJ+W9ju/7PFy3ZvfdPxp0hAVH5Cg60355C9VsveKfK9AM/7i5AALbZhvSJ8ERASUIoElLb7393bs/fPVe3+u0ECovITGWyDOYd8tbJit9bWInPz5sQLL9mxo4/6i5AALbZBvTKT+oVBAjz5NUtAabv/zxev2J21DaESCYjKT2CwVefss7vXsneKvUdA4FoiAVpsQ3plRltERDASoJGYBJT2uf/dvZa9d+5CxCOQgKj8xCXgy4srdrvIU4CjhgTUsJ6erHx75fAlgMQvDBLgya9BAn77N2Xt/r9cvmq3H7pe+3eBBETlJywB+6cAJb4X4LmDn5CAkdfTk5Vnr8zkdGGQAE/+CBKw/9r/U5HryJe9VsveO9ve/ac52PTUfPpXqvdRc/9+cfGi3V5bj8zLm8NTADMkoIb19GTl1yuD9wJI/MIgAZ78ISWgtN3/H5av2c0H3YM/zcGmp+bTv1K9jxr7d3evZe8W/70ASMDI6+nJyqtXqu8FkPiFQQI8+ZESUOLu/52fLmQz2PTUfPpXqvdRY/9+fuFC4acAZkhADevpycqnV9z3Akj8wiABnvwICSht9//Nhet2Y/XgzV+ZDDY9NZ/+lep91NS/u7ste6/4UwAzJKCG9fRk5dEr/nsBJH5hkABPviABpe3+W62WvXu2753/mQw2PTWf/pXqfdTUv58tX7Q766WfApghATWspycr/V4J3wsg8QuDBHjyAxJQ2u7/u5UbdvVexdfAZjLY9NR8+leq91FD/+7u7dl7RX8ioBskYOT19GSl3SvavQASvzBIgCffsab9z/0XtPs3s9M/eT73n8lg01Pz6V+p3kcN/fvZ8kW7t658KVRzqD4FMEMCalhPT1a6vaLfCyDxC4MEePIr1vTbv/llUbv/H1Zu2pW7gZvAZDLY9NR8+leq9zFi/+7s7fGJgB6QgJHX05OVZq/E3Qsg8QuDBHjyu9ZU2mv/ZmbvqJ/7z2Sw6an59K9U72PE/v106YLd2+AU4JBm9AoSUMFBrwgC0Bec+IVBAjz5B2sqbff/4+VbtnJ7tes3zRhsemo+/SvV+xihf3f29uy9uYXIx+aN/xTArCm9ggRU0JJOACqCE78wSIA7//hT5e3+T/24XPHbZgw2PTWf/pXqfYzQv79fWuYUYIBm9AoSMEiEAPQFJ35hkIDq/N/+bVm7/7NXbtvFnt1/N80YbHpqPv0r1fsYsn939vbsvfOcAgzSjF5BAnqJFIC+4MQvDBLQm1/ka/++d/6bWVMGm56aT/9K9T6G7N/fLy7bfU4BKmhGryABhwwhAH3BiV8YJOAwv7Td/9y1O7Z4855Q2YzBpqfm079SvY8h+ndnr2Xvn1+MekzuaKcAZk3pFSRgnyEFoC848QuDBJS5+z91ZjmiuhmDTU/Np3+leh9D9O/Hi8t2fyP2dtF5o50CmDWlV5CAkQSgLzjxC1O6BJS2+5+/ftcWbtyPGCJmTRlsemo+/SvV+4js3529PftgnlMAN83oldIlYEQB6AtO/MKUKgHHn368vN3/j12f+0cCPKn59K9U7yOyfz9ZXLYHm1t6fgPQTwHMmtIrJUtADQLQF5z4hSlRAkrb/S/fum/nr93t+g0S4E/Np3+leh8R/bu1u2vvz/OJAD/N6JVSJaAmAegLTvzClCQBJe7+T/6wXPFbJMCfmk//SvU+Ivr344VCTwEeUU8BzJrSKyVKQI0C0LeQxC9MKRJQ2u7/wq1VO3f1juNPkQB/aj79K9X7EPt3/xSgwPcC/Pq5InulNAmoWQD6FpL4hWm6BJS4+6/+1r9ukAB/aj79K9X7EPv344WlMk8Bjj5aZK+UJAFjEIC+hSR+YZosAaXt/i/deWBnL98WKpEAf2o+/SvV+xD6d2t3t8xPBPz6WSu1V0qRgDEJQN9CEr8wTZSAIr/z/8xyxKwqc7Dpqfn0r1TvQ+jfjxdLPQU4aqX2SgkSMEYB6FtI4hemaRJQ2u7/2r01OyPt/rspc7Dpqfn0r1TvI9C/mzu79tHCkp7XAA5PAcxK7ZWmS8CYBaBvIYlfmKZIwPGnH7dXn3kych158/aZZWsNe/0LHGx6aj79K9X7CPz/8+HCoj3cKvUUwKzUXmmyBExAAPoWkviFaYIElLb7v35/zb5fudn1GyRgACRAw9O/mzu79uH8kp7VAHpPAcxK7ZWmSsCEBKBvIYlfmJwloMTd/6kzFw52/90gAQMgARqe/v1oYcnWtrb1rAYw+O2AZfZKEyVgggLQt5DEL0yuElDa7v/m6rp9e+Gm4zohAQMgARqO/t3Y2bEPi34vQJsye6VpEjBhAehbSMIXxp2UrgSUuvvfa2//kQAtHwnQcPTvhwuLtr5d+imAWam90iQJmIIA9C0k0QvjT0pTAkrb/d96sGFfL9/o/SUSoOUjARoV/buxzSnAIWX2SlMkYEoCYJb6hclNAo4//cfF7f5P/9i1++8GCdDykQCNiv79YJ5TgEPK7JUmSMAUBcAs5QvTm5O+BPz2b48Xtfu/u7Zpf1i64S5AArR8JECjr383tncK/16AfsrsldwlYMoCYJbqhRnMSVcCSnzt//SZi7a71zLv9UQCtHwkQKOvf9/nFKCPMnslZwlIQADMUrww1TlpSkCJu/8vFq91/QYJkOp9IAEaXf27sb1jHy8uR6wrf/ynAGal9kquEpCIAJildmFykYASd//v/bRie3v9/5MgAVK9DyRAo6t/3z/PKcAgZfZKjhKQkACYpXRhKusTlIDSdv/317fsi4X93f/gvzcSINX7QAI0Dvp3fXvbPlm8ELeszAmfApiV2iu5SUBiAmCWyoVx5ickAaXu/rd39zo/IwFIQFT+GCTg/flF29zZiVtW5oRPAcxK7ZWcJCBBATBL4cJ48xORgN/+pqzd/4ONbfts/urA75EAJCAqv2YJWNva5r0ATsrslVwkIFEBMJv2hQnmT1kCSvzcf//uvxskAAmIyq9ZAt47zymAmzJ7JQcJUP7rTZEj1vm3aJnw791V76OTJda78rvWVJ0Ukd8ysyN6/W9/80xRu38zsxf/9En71S9+Ft/vUURNqvoZ+Heb8noG0NZTi2OZ2d21DfufP8xaq1XVd/X1r1TvYW1z/70AJ156PmI9edM+BXh3/rxQfcSs1Yr4fyBw7Qf+2w35/4L0vCLm92Tt1+urms5zXeICYIYEDFLia/9mZq/+xVPTXgJMkO3dPfu/Pvii98m/TYIS8O7cgv3dc78Sd8XN4MQLL9kny0vi6QcSIOdP6Lku4ZcAusnnOHESLweUuPuHsmiZ2X/56ge7eOeev8jMUnk5YG1r236/eDFyLXmjvxegDS8HyPkTeK7LRADMkIB9St39Q1mc/GnBvlkZfMPnAIlJwLtzC7a5sxu5lrzR3wvQBgmQ88f8XJeRAJghAez+ofn8cPm6nTy7YDm+MfDh1pZ9ulTi9wI8F/koJEDOH+NzXWYCYFayBLD7h6Zz+d6q/acvf+h63T8/CXhvbtG2d0s7BXjRjh19NPJRSICcP6bnugwFwKxUCWD3D03m4da2/cOn39rWwBF6XhKwurlpv18q9b0AQ1x7JEDLH8NzXaYCYFaaBJT4uX8oh929lv3jp9/arYfrjoq8JODduYVCTwGOGhJQQaISkLEAmJUkAb/9zV+w+4fG8l+/+cnmb94JVOUjAasbm/ZpsacAZkhABQlKQOYCYFaCBBz/Ba/9Q3N5f27ZPlu8lHz/SvVdvFP0KYAZElBBYhLQAAEwa7oEsPuHpjJ77Zb9r++7vkku8f6V6g9Y3di0z5ZWIv/uvBn8XgAkYICEJKAhAmDWVAlg9w9N5cbqmv2Hz763vVbf154l3r9S/QHvzM0XfgpghgRUkIgENEgAzHIaIqoEsPuHJrK+tW3//pNvbH17p+v/73z6V6o3s/sbm/b5cumnAGZIQAUJSEDDBMAspyESkgB2/9BE9lot+09f/GA3H6x1ftdkCTg9yynAPkjAAFOWgAYKgFlOQ8QnAez+oYn8929n7ezVWwO/b6oEFHsK8KtnK/4ECRhgihLQUAEwy2mIVCWx+4cm8sXSZft43v3xuKZKwDtzC7aztxf5d+bNiRdftGOPVN0jAAkYYEoS0GABMMtpiPQn8a1/0DQWb961/+/rs8G6JkrAvfWNMk8Bfv2s4zohAQNMQQIaLgBmOQ2R9p8c/8Uf2avPPBGZC5Aud9Y27B8//d5297SJ2UQJeGd2vsxTgKNHkQA1f8ISUIAAmOU0RI4Yu39oFps7u/a7j7+1B5tbB7/R/u9umgTcXd+wLy5civy78qbnEwFIgJY/QQkoRADMchkiz7D7hwbRarXs//78jF2596BysIVomgScPjdvux6637IAAA3RSURBVKWeApghAWr+hCSgIAEwy2GIvM7uHxrEP51ZsDOXbxz+onAJuLu+bl+WfApghgSo+ROQgMIEwCzlIfLML/7IXmH3Dw3hu5Xr9u7ZpcE/KFwCTpZ+CmCGBKj5Y5aAAgXALNUhwu4fmsKlu6v2n7/40d1eBUvA3fUN+/Ji4acAZkiAmj9GCShUAMxSGyLP/OJxe+U4u3/In/sbW/a7j78Lf/tdwRJw6twCpwBmSICaPyYJKFgAzFIaIq/zrX/QAHZ29+wfPvnO7q1v2rCDLUQTJODO2rp9dfFyZH7eVN8jwJAANX8MElC4AJilMESe+cUfsfuH7GmZ2f/z1Vm7cPt+12+RABenZxcO7oRYDpWnAGZIgJpfswQgAGY27SHC7h+awDtnl+wPF65W/AkSUMWth2ucAnSDBGj5NUoAAtBhOkOE3T80gbNXb9nbZxY9FUhAFafOzXMK0A0SoOXXJAEIQA+THyLs/iF3rt1/aP/xszPCExkS0M+th2v2B04BekECtPwaJAABGGByQ4TdP+TO2ta2/e7j72xja0d8BBLQz8liTwEedRcgAVr+iBKAAFQymSHC7h9yZnevZf/4+zN268HG/i/GPNj01Lwk4NbDNft65UpkZt7snwL82rzXEgnQ8keQAATAyXiHCJ/7h9z5b1/P2vz1Owc/TWaw6al5ScDJs+cLPQU4akiAWO9jSAlAALyMb4i8/ps/Z/cP2fLR3Ip9utD/2jUSEJXftaabD9fsm2JPAcyQALHexxASgAAEqX+I8No/5MzctTv2P7497/hTJCAqv2tNb58r+RTADAkQ631ESgACIFHvEHn9X7H7hzy5/XBDeMc/EhCVf5Bz88GafXup6nsUmkvvKYAZEiDW+4iQAARApp4hwu4fcmVzZ9f+/Uff2cPNbaEaCYjKP8g5dW7eWkWfApghAWK9D1ECEIAoRh8i7P4hR1qtlv3HT3+0a/cfRjwKCYjKb5ldW33AKYCZIQFivQ9BAhCAaIYfIuz+IVf+53fz9tOVW5bqYNNT05eAk5wCHIAESPU+AhKAAAzFcEOE3T/kyFdLV+2D2ZWu36Q52PTUtCXg2v0H9t3la5EZeVN9CmCGBIj1PjwSgAAMTdwQ4XP/kCNLN+/Z//vlbDaDTU9NWwLe/uk8pwAdkACp3odDAhCAkdCHCLt/yI27axv2j5+csZ29vf1fZDLY9NR0JeDa6gP7nlOALpAAqd5HRa8gACMTHiL7r/3/fDLLAaiB7d09+4dPztjqxlbvH2Qy2PTUdCXg7bOcAvSCBEj1Pvp6BQGoBf8QYfcPOdEys//y+Vlbub3qLughvcEWl5qmBFy9/8B+uHI98rF54z8FMEMCxHofXVkIQG1UDxF2/5AbJ39Ysm8v3vAXJT7YmiIBb/00xynAAEiAVO/jIAsBqJXBIcLuH3Li+5WbdurH5YOf8h1scr2lLQFX7z+wM5wCVIAESPU+WgjAGDi88M88ze4f8uHy3Qf2nz8/2zdj8hxsUfWWtgS8fXY+7rmoAYRPAcyQALHeAwIwFvYv/Ov/mt0/5MHqxpb97qMfbGtnt+JP8xtsTZKAy/dW7UdOARwgAVK9AwRgTOx/7p/dP6TP7l7L/sPvf7S7a5ueqrwG22BW3hLAKYAPJECqrwABGBOv/+s/Y/cPWfBfv5q1hRv3hMp8BluHhkjApbv37aergTdmNgz9FMAMCRDr+0AAxgDv/IdceO/sin2+EHPzmTwGWw8NkYC3fjrPKYAXJECq7wIBGAPs/iEHzl29Y///d4vWxME2QAMkoNxTgGcjHoEESPUHqGoFIo//s6O2tbNn3y3drSFN/K86MduYwv7D+++W2n5oiPWM9b+dez3bu3v23/5w3vY6nzE/YtZqRazniDffWtaXFah35Q/kDLmegTVp6zms6qqX1iT++3aytPq3fjpv27tVb9SsmSNmqfTXU//8n9sRO2IteT2ea1n5326I/zcb0itH/s/ffZ3Gf+Vi6Lrc0n+sWAmI/c/ZVx/c7ETkDzVEKurrlIAjNazHzLOmIfKjNi2e/MqcetcTnT+QNeT1l9ck5PdkaetpVfxT6v0r1ftIrX+PWIQEBLLpFTNr8RLA5EnjONGZH5xvEfmtGtbTyYmo99GqYT1mnjXVe6Q4mMYRp1TvowEvBzjzg2vKuH9bZkei1kOvhOoRgKmQzxBBAjz5SICWjwRI+UiAABKg5YtrQgCmRj5DBAnw5CMBWj4SIOUjAQJIgJYvrAkBmCr5DBEkwJOPBGj5SICUjwQIIAFafmBNCMDUyWeIIAGefCRAy0cCpHwkQAAJ0PI9a0IAkiCfIYIEePKRAC0fCZDykQABJEDLd6wJAUiGfIYIEuDJRwK0fCRAykcCBJAALb9iTQhAUuQzRJAATz4SoOUjAVI+EiCABGj5fTkIQHLkM0SQAE8+EqDlIwFSPhIggARo+V05CECS5DNEkABPPhKg5SMBUj4SIIAEaPkHOQhAsuQzRJAATz4SoOUjAVI+EiCABGj5LQQgcfIZIkiAJx8J0PKRACkfCRBAAqR8BCB58hkiSIAnHwnQ8pEAKR8JEEACgvkIQBbkM0SQAE8+EqDlIwFSPhIggAR4QQCyIZ8hggR48pEALR8JkPKRAAEkwAkCkBX5DBEkwJOPBGj5SICUjwQIIAGVIADZkc8QQQI8+UiAlo8ESPlIgAASMAACkCX5DBEkwJOPBGj5SICUjwQIIAE9IADZks8QQQI8+UiAlo8ESPlIgAAS0AEByJp8hggS4MlHArR8JEDKRwIEkAAzQwAaQD5DBAnw5CMBWj4SIOUjAQJIAALQDPIZIkiAJx8J0PKRACkfCRAoXAIQgMaQzxBBAjz5SICWjwRI+UiAQMESgAA0inyGCBLgyUcCtHwkQMpHAgQKlQAEoHHkM0SQAE8+EqDlIwFSPhIgUKAEIACNJJ8hggR48pEALR8JkPKRAIHCJAABaCz5DBEkwJOPBGj5SICUjwQIFCQBCECjyWeIIAGefCRAy0cCpHwkQKAQCUAAGk8+QwQJ8OQjAVo+EiDlIwECBUgAAlAE+QwRJMCTjwRo+UiAlI8ECDRcAhCAYshniCABnnwkQMtHAqR8JECgwRKAABRFPkMECfDkIwFaPhIg5SMBAg2VAASgOPIZIkiAJx8J0PKRACkfCRBooAQgAEWSzxBBAjz5SICWjwRI+UiAQMMkAAEolnyGCBLgyUcCtHwkQMpHAgQaJAEIQNHkM0SQAE8+EqDlIwFSPhIg0BAJQACKJ58hggR48pEALR8JkPKRAIEGSAACAJbTEEECPPlIgJaPBEj5SIBA5hKAAMAB+QwRJMCTjwRo+UiAlI8ECGQsAQgAdJHPEEECPPlIgJaPBEj5SIBAphKAAEAf+QwRJMCTjwRo+UiAlI8ECGQoAQgAVJDPEEECPPlIgJaPBEj5SIBAZhKAAICDfIYIEuDJRwK0fCRAykcCBDKSAAQAPOQzRJAATz4SoOUjAVI+EiCQiQQgABAgnyGCBHjykQAtHwmQ8pEAgQwkAAEAgXyGCBLgyUcCtHwkQMpHAgQSlwAEAETyGSJIgCcfCdDykQApHwkQSFgCEACIIJ8hggR48pEALR8JkPKRAIFEJQABgEjyGSJIgCcfCdDykQApHwkQSFACEAAYgnyGCBLgyUcCtHwkQMpHAgQSkwAEAIYknyGCBHjykQAtHwmQ8pEAgYQkAAGAEchniCABnnwkQMtHAqR8JEAgEQlAAGBE8hkiSIAnHwnQ8pEAKR8JEEhAAhAAqIF8hggS4MlHArR8JEDKRwIEpiwBCADURD5DBAnw5CMBWj4SIOUjAQJTlAAEAGoknyGCBHjykQAtHwmQ8pEAgSlJAAIANZPPEEECPPlIgJaPBEj5SIDAFCQAAYAxkM8QQQI8+UiAlo8ESPlIgMCEJQABgDGRzxBBAjz5SICWjwRI+UiAwAQlAAGAMZLPEEECPPlIgJaPBEj5SIDAhCQAAYAxk88QQQI8+UiAlo8ESPlIgMAEJAABgAmQzxBBAjz5SICWjwRI+UiAwJglAAGACZHPEEECPPlIgJaPBEj5SIDAGCUAAYAJks8QQQI8+UiAlo8ESPlIgMCYJAABgAmTzxBBAjz5SICWjwRI+UiAwBgkAAGAKZDPEEECPPlIgJaPBEj5SIBAzRKAAMCUyGeIIAGefCRAy0cCpHwkQKBGCUAAYIrkM0SQAE8+EqDlIwFSPhIgUJMEIAAwZfIZIkiAJx8J0PKRACkfCRCoQQIQAEiAfIYIEuDJRwK0fCRAykcCBEaUAAQAEiGfIYIEePKRAC0fCZDykQCBESQAAYCEyGeIIAGefCRAy0cCpHwkQGBICUAAIDHyGSJIgCcfCdDykQApHwkQGEICEABIkHyGCBLgyUcCtHwkQMpHAgQiJQABgETJZ4ggAZ58JEDLRwKkfCRAIEICEABImHyGCBLgyUcCtHwkQMpHAgRECUAAIHHyGSJIgCcfCdDykQApHwkQECQAAYAMyGeIIAGefCRAy0cCpHwkQCAgAQgAZEI+QwQJ8OQjAVo+EiDlIwECHglAACAj8hkiSIAnHwnQ8pEAKR8JEHBIAAIAmZHPEEECPPlIgJaPBEj5SIBAhQQgAJAh+QwRJMCTjwRo+UiAlI8ECPRJAAIAmZLPEEECPPlIgJaPBEj5SIBAlwQgAJAx+QwRJMCTjwRo+UiAlI8ECBxIwP8GTaHSvaGkvYoAAAAASUVORK5CYII=;" vertex="1" parent="1">
          <mxGeometry x="630.0000000000001" y="420" width="32" height="32" as="geometry" />
        </mxCell>
      </root>
    </mxGraphModel>
  </diagram>
</mxfile>
